<?xml version="1.0" encoding="UTF-8" standalone="no"?>
<!DOCTYPE svg PUBLIC "-//W3C//DTD SVG 1.1//EN"
 "http://www.w3.org/Graphics/SVG/1.1/DTD/svg11.dtd">
<!-- Generated by graphviz version 6.0.2 (20221011.1828)
 -->
<!-- Title: dependency&#45;cruiser output Pages: 1 -->
<svg width="969pt" height="696pt"
 viewBox="0.00 0.00 969.00 696.00" xmlns="http://www.w3.org/2000/svg" xmlns:xlink="http://www.w3.org/1999/xlink">
<g id="graph0" class="graph" transform="scale(1 1) rotate(0) translate(4 692)">
<title>dependency&#45;cruiser output</title>
<polygon fill="white" stroke="none" points="-4,4 -4,-692 965,-692 965,4 -4,4"/>
<g id="clust1" class="cluster">
<title>cluster_src</title>
<path fill="#ffffff" stroke="black" stroke-width="2" d="M20,-8C20,-8 941,-8 941,-8 947,-8 953,-14 953,-20 953,-20 953,-668 953,-668 953,-674 947,-680 941,-680 941,-680 20,-680 20,-680 14,-680 8,-674 8,-668 8,-668 8,-20 8,-20 8,-14 14,-8 20,-8"/>
<text text-anchor="middle" x="480.5" y="-668.8" font-family="Helvetica,sans-Serif" font-weight="bold" font-size="9.00">src</text>
</g>
<g id="clust2" class="cluster">
<title>cluster_src/api</title>
<path fill="#ffffff" stroke="black" stroke-width="2" d="M467,-568C467,-568 630,-568 630,-568 636,-568 642,-574 642,-580 642,-580 642,-642 642,-642 642,-648 636,-654 630,-654 630,-654 467,-654 467,-654 461,-654 455,-648 455,-642 455,-642 455,-580 455,-580 455,-574 461,-568 467,-568"/>
<text text-anchor="middle" x="548.5" y="-642.8" font-family="Helvetica,sans-Serif" font-weight="bold" font-size="9.00">api</text>
</g>
<g id="clust3" class="cluster">
<title>cluster_src/api/model</title>
<path fill="#ffffff" stroke="black" stroke-width="2" d="M560,-576C560,-576 622,-576 622,-576 628,-576 634,-582 634,-588 634,-588 634,-616 634,-616 634,-622 628,-628 622,-628 622,-628 560,-628 560,-628 554,-628 548,-622 548,-616 548,-616 548,-588 548,-588 548,-582 554,-576 560,-576"/>
<text text-anchor="middle" x="591" y="-616.8" font-family="Helvetica,sans-Serif" font-weight="bold" font-size="9.00">model</text>
</g>
<g id="clust4" class="cluster">
<title>cluster_src/components</title>
<path fill="#ffffff" stroke="black" stroke-width="2" d="M357,-320C357,-320 528,-320 528,-320 534,-320 540,-326 540,-332 540,-332 540,-510 540,-510 540,-516 534,-522 528,-522 528,-522 357,-522 357,-522 351,-522 345,-516 345,-510 345,-510 345,-332 345,-332 345,-326 351,-320 357,-320"/>
<text text-anchor="middle" x="442.5" y="-510.8" font-family="Helvetica,sans-Serif" font-weight="bold" font-size="9.00">components</text>
</g>
<g id="clust6" class="cluster">
<title>cluster_src/components/button</title>
<path fill="#ffffff" stroke="black" stroke-width="2" d="M365,-444C365,-444 515.5,-444 515.5,-444 521.5,-444 527.5,-450 527.5,-456 527.5,-456 527.5,-484 527.5,-484 527.5,-490 521.5,-496 515.5,-496 515.5,-496 365,-496 365,-496 359,-496 353,-490 353,-484 353,-484 353,-456 353,-456 353,-450 359,-444 365,-444"/>
<text text-anchor="middle" x="440.25" y="-484.8" font-family="Helvetica,sans-Serif" font-weight="bold" font-size="9.00">button</text>
</g>
<g id="clust5" class="cluster">
<title>cluster_src/components/TodoList</title>
<path fill="#ffffff" stroke="black" stroke-width="2" d="M375,-384C375,-384 520,-384 520,-384 526,-384 532,-390 532,-396 532,-396 532,-424 532,-424 532,-430 526,-436 520,-436 520,-436 375,-436 375,-436 369,-436 363,-430 363,-424 363,-424 363,-396 363,-396 363,-390 369,-384 375,-384"/>
<text text-anchor="middle" x="447.5" y="-424.8" font-family="Helvetica,sans-Serif" font-weight="bold" font-size="9.00">TodoList</text>
</g>
<g id="clust7" class="cluster">
<title>cluster_src/layout</title>
<path fill="#ffffff" stroke="black" stroke-width="2" d="M270,-16C270,-16 434.5,-16 434.5,-16 440.5,-16 446.5,-22 446.5,-28 446.5,-28 446.5,-90 446.5,-90 446.5,-96 440.5,-102 434.5,-102 434.5,-102 270,-102 270,-102 264,-102 258,-96 258,-90 258,-90 258,-28 258,-28 258,-22 264,-16 270,-16"/>
<text text-anchor="middle" x="352.25" y="-90.8" font-family="Helvetica,sans-Serif" font-weight="bold" font-size="9.00">layout</text>
</g>
<g id="clust8" class="cluster">
<title>cluster_src/layout/basic</title>
<path fill="#ffffff" stroke="black" stroke-width="2" d="M278,-24C278,-24 426.5,-24 426.5,-24 432.5,-24 438.5,-30 438.5,-36 438.5,-36 438.5,-64 438.5,-64 438.5,-70 432.5,-76 426.5,-76 426.5,-76 278,-76 278,-76 272,-76 266,-70 266,-64 266,-64 266,-36 266,-36 266,-30 272,-24 278,-24"/>
<text text-anchor="middle" x="352.25" y="-64.8" font-family="Helvetica,sans-Serif" font-weight="bold" font-size="9.00">basic</text>
</g>
<g id="clust9" class="cluster">
<title>cluster_src/pages</title>
<path fill="#ffffff" stroke="black" stroke-width="2" d="M270,-110C270,-110 421.5,-110 421.5,-110 427.5,-110 433.5,-116 433.5,-122 433.5,-122 433.5,-300 433.5,-300 433.5,-306 427.5,-312 421.5,-312 421.5,-312 270,-312 270,-312 264,-312 258,-306 258,-300 258,-300 258,-122 258,-122 258,-116 264,-110 270,-110"/>
<text text-anchor="middle" x="345.75" y="-300.8" font-family="Helvetica,sans-Serif" font-weight="bold" font-size="9.00">pages</text>
</g>
<g id="clust11" class="cluster">
<title>cluster_src/pages/login</title>
<path fill="#ffffff" stroke="black" stroke-width="2" d="M278,-234C278,-234 325,-234 325,-234 331,-234 337,-240 337,-246 337,-246 337,-274 337,-274 337,-280 331,-286 325,-286 325,-286 278,-286 278,-286 272,-286 266,-280 266,-274 266,-274 266,-246 266,-246 266,-240 272,-234 278,-234"/>
<text text-anchor="middle" x="301.5" y="-274.8" font-family="Helvetica,sans-Serif" font-weight="bold" font-size="9.00">login</text>
</g>
<g id="clust10" class="cluster">
<title>cluster_src/pages/NotFound</title>
<path fill="#ffffff" stroke="black" stroke-width="2" d="M278.5,-174C278.5,-174 324.5,-174 324.5,-174 330.5,-174 336.5,-180 336.5,-186 336.5,-186 336.5,-214 336.5,-214 336.5,-220 330.5,-226 324.5,-226 324.5,-226 278.5,-226 278.5,-226 272.5,-226 266.5,-220 266.5,-214 266.5,-214 266.5,-186 266.5,-186 266.5,-180 272.5,-174 278.5,-174"/>
<text text-anchor="middle" x="301.5" y="-214.8" font-family="Helvetica,sans-Serif" font-weight="bold" font-size="9.00">NotFound</text>
</g>
<g id="clust12" class="cluster">
<title>cluster_src/router</title>
<path fill="#ffffff" stroke="black" stroke-width="2" d="M90,-138C90,-138 238,-138 238,-138 244,-138 250,-144 250,-150 250,-150 250,-268 250,-268 250,-274 244,-280 238,-280 238,-280 90,-280 90,-280 84,-280 78,-274 78,-268 78,-268 78,-150 78,-150 78,-144 84,-138 90,-138"/>
<text text-anchor="middle" x="164" y="-268.8" font-family="Helvetica,sans-Serif" font-weight="bold" font-size="9.00">router</text>
</g>
<g id="clust13" class="cluster">
<title>cluster_src/router/guard</title>
<path fill="#ffffff" stroke="black" stroke-width="2" d="M98,-202C98,-202 144,-202 144,-202 150,-202 156,-208 156,-214 156,-214 156,-242 156,-242 156,-248 150,-254 144,-254 144,-254 98,-254 98,-254 92,-254 86,-248 86,-242 86,-242 86,-214 86,-214 86,-208 92,-202 98,-202"/>
<text text-anchor="middle" x="121" y="-242.8" font-family="Helvetica,sans-Serif" font-weight="bold" font-size="9.00">guard</text>
</g>
<g id="clust14" class="cluster">
<title>cluster_src/router/routers</title>
<path fill="#ffffff" stroke="black" stroke-width="2" d="M184,-157C184,-157 230,-157 230,-157 236,-157 242,-163 242,-169 242,-169 242,-197 242,-197 242,-203 236,-209 230,-209 230,-209 184,-209 184,-209 178,-209 172,-203 172,-197 172,-197 172,-169 172,-169 172,-163 178,-157 184,-157"/>
<text text-anchor="middle" x="207" y="-197.8" font-family="Helvetica,sans-Serif" font-weight="bold" font-size="9.00">routers</text>
</g>
<g id="clust15" class="cluster">
<title>cluster_src/store</title>
<path fill="#ffffff" stroke="black" stroke-width="2" d="M90,-288C90,-288 152,-288 152,-288 158,-288 164,-294 164,-300 164,-300 164,-418 164,-418 164,-424 158,-430 152,-430 152,-430 90,-430 90,-430 84,-430 78,-424 78,-418 78,-418 78,-300 78,-300 78,-294 84,-288 90,-288"/>
<text text-anchor="middle" x="121" y="-418.8" font-family="Helvetica,sans-Serif" font-weight="bold" font-size="9.00">store</text>
</g>
<g id="clust16" class="cluster">
<title>cluster_src/store/modules</title>
<path fill="#ffffff" stroke="black" stroke-width="2" d="M98,-322C98,-322 144,-322 144,-322 150,-322 156,-328 156,-334 156,-334 156,-392 156,-392 156,-398 150,-404 144,-404 144,-404 98,-404 98,-404 92,-404 86,-398 86,-392 86,-392 86,-334 86,-334 86,-328 92,-322 98,-322"/>
<text text-anchor="middle" x="121" y="-392.8" font-family="Helvetica,sans-Serif" font-weight="bold" font-size="9.00">modules</text>
</g>
<g id="clust18" class="cluster">
<title>cluster_src/utils</title>
<path fill="#ffffff" stroke="black" stroke-width="2" d="M560,-280C560,-280 933,-280 933,-280 939,-280 945,-286 945,-292 945,-292 945,-548 945,-548 945,-554 939,-560 933,-560 933,-560 560,-560 560,-560 554,-560 548,-554 548,-548 548,-548 548,-292 548,-292 548,-286 554,-280 560,-280"/>
<text text-anchor="middle" x="746.5" y="-548.8" font-family="Helvetica,sans-Serif" font-weight="bold" font-size="9.00">utils</text>
</g>
<g id="clust19" class="cluster">
<title>cluster_src/utils/http</title>
<path fill="#ffffff" stroke="black" stroke-width="2" d="M568,-434C568,-434 925,-434 925,-434 931,-434 937,-440 937,-446 937,-446 937,-522 937,-522 937,-528 931,-534 925,-534 925,-534 568,-534 568,-534 562,-534 556,-528 556,-522 556,-522 556,-446 556,-446 556,-440 562,-434 568,-434"/>
<text text-anchor="middle" x="746.5" y="-522.8" font-family="Helvetica,sans-Serif" font-weight="bold" font-size="9.00">http</text>
</g>
<g id="clust20" class="cluster">
<title>cluster_src/utils/http/axios</title>
<path fill="#ffffff" stroke="black" stroke-width="2" d="M662,-442C662,-442 917,-442 917,-442 923,-442 929,-448 929,-454 929,-454 929,-496 929,-496 929,-502 923,-508 917,-508 917,-508 662,-508 662,-508 656,-508 650,-502 650,-496 650,-496 650,-454 650,-454 650,-448 656,-442 662,-442"/>
<text text-anchor="middle" x="789.5" y="-496.8" font-family="Helvetica,sans-Serif" font-weight="bold" font-size="9.00">axios</text>
</g>
<g id="clust17" class="cluster">
<title>cluster_src/styles</title>
<path fill="#ffffff" stroke="black" stroke-width="2" d="M94.5,-438C94.5,-438 147.5,-438 147.5,-438 153.5,-438 159.5,-444 159.5,-450 159.5,-450 159.5,-478 159.5,-478 159.5,-484 153.5,-490 147.5,-490 147.5,-490 94.5,-490 94.5,-490 88.5,-490 82.5,-484 82.5,-478 82.5,-478 82.5,-450 82.5,-450 82.5,-444 88.5,-438 94.5,-438"/>
<text text-anchor="middle" x="121" y="-478.8" font-family="Helvetica,sans-Serif" font-weight="bold" font-size="9.00">styles</text>
</g>
<!-- src/App.vue -->
<g id="node1" class="node">
<title>src/App.vue</title>
<g id="a_node1"><a xlink:href="src/App.vue" xlink:title="App.vue">
<path fill="#41f083" stroke="black" d="M142,-130C142,-130 100,-130 100,-130 97,-130 94,-127 94,-124 94,-124 94,-118 94,-118 94,-115 97,-112 100,-112 100,-112 142,-112 142,-112 145,-112 148,-115 148,-118 148,-118 148,-124 148,-124 148,-127 145,-130 142,-130"/>
<text text-anchor="start" x="104.5" y="-118.8" font-family="Helvetica,sans-Serif" font-size="9.00">App.vue</text>
</a>
</g>
</g>
<!-- src/api/model/userModel.ts -->
<g id="node2" class="node">
<title>src/api/model/userModel.ts</title>
<g id="a_node2"><a xlink:href="src/api/model/userModel.ts" xlink:title="userModel.ts">
<path fill="#ddfeff" stroke="black" d="M620,-602C620,-602 562,-602 562,-602 559,-602 556,-599 556,-596 556,-596 556,-590 556,-590 556,-587 559,-584 562,-584 562,-584 620,-584 620,-584 623,-584 626,-587 626,-590 626,-590 626,-596 626,-596 626,-599 623,-602 620,-602"/>
<text text-anchor="start" x="564" y="-590.8" font-family="Helvetica,sans-Serif" font-size="9.00">userModel.ts</text>
</a>
</g>
</g>
<!-- src/api/user.ts -->
<g id="node3" class="node">
<title>src/api/user.ts</title>
<g id="a_node3"><a xlink:href="src/api/user.ts" xlink:title="user.ts">
<path fill="#ddfeff" stroke="black" d="M511,-598C511,-598 469,-598 469,-598 466,-598 463,-595 463,-592 463,-592 463,-586 463,-586 463,-583 466,-580 469,-580 469,-580 511,-580 511,-580 514,-580 517,-583 517,-586 517,-586 517,-592 517,-592 517,-595 514,-598 511,-598"/>
<text text-anchor="start" x="475.5" y="-586.8" font-family="Helvetica,sans-Serif" font-size="9.00">user.ts</text>
</a>
</g>
</g>
<!-- src/api/user.ts&#45;&gt;src/api/model/userModel.ts -->
<g id="edge1" class="edge">
<title>src/api/user.ts&#45;&gt;src/api/model/userModel.ts</title>
<path fill="none" stroke="#000000" stroke-width="2" stroke-opacity="0.200000" d="M517.01,-590.05C527.07,-590.46 538.8,-590.93 549.89,-591.38"/>
<polygon fill="#000000" fill-opacity="0.200000" stroke="#000000" stroke-width="2" stroke-opacity="0.200000" points="549.88,-593.48 555.96,-591.62 550.05,-589.28 549.88,-593.48"/>
</g>
<!-- src/utils/http/index.ts -->
<g id="node4" class="node">
<title>src/utils/http/index.ts</title>
<g id="a_node4"><a xlink:href="src/utils/http/index.ts" xlink:title="index.ts">
<path fill="#ddfeff" stroke="black" d="M612,-497C612,-497 570,-497 570,-497 567,-497 564,-494 564,-491 564,-491 564,-485 564,-485 564,-482 567,-479 570,-479 570,-479 612,-479 612,-479 615,-479 618,-482 618,-485 618,-485 618,-491 618,-491 618,-494 615,-497 612,-497"/>
<text text-anchor="start" x="575" y="-485.8" font-family="Helvetica,sans-Serif" font-size="9.00">index.ts</text>
</a>
</g>
</g>
<!-- src/api/user.ts&#45;&gt;src/utils/http/index.ts -->
<g id="edge2" class="edge">
<title>src/api/user.ts&#45;&gt;src/utils/http/index.ts</title>
<path fill="none" stroke="#000000" stroke-width="2" stroke-opacity="0.200000" d="M513.46,-579.97C522.36,-575.69 532.29,-569.98 540,-563 559.23,-545.61 574.51,-519.32 582.9,-502.93"/>
<polygon fill="#000000" fill-opacity="0.200000" stroke="#000000" stroke-width="2" stroke-opacity="0.200000" points="584.87,-503.68 585.67,-497.38 581.11,-501.81 584.87,-503.68"/>
</g>
<!-- src/utils/http/axios/Axios.ts -->
<g id="node31" class="node">
<title>src/utils/http/axios/Axios.ts</title>
<g id="a_node31"><a xlink:href="src/utils/http/axios/Axios.ts" xlink:title="Axios.ts">
<path fill="#ddfeff" stroke="black" d="M706,-468C706,-468 664,-468 664,-468 661,-468 658,-465 658,-462 658,-462 658,-456 658,-456 658,-453 661,-450 664,-450 664,-450 706,-450 706,-450 709,-450 712,-453 712,-456 712,-456 712,-462 712,-462 712,-465 709,-468 706,-468"/>
<text text-anchor="start" x="669" y="-456.8" font-family="Helvetica,sans-Serif" font-size="9.00">Axios.ts</text>
</a>
</g>
</g>
<!-- src/utils/http/index.ts&#45;&gt;src/utils/http/axios/Axios.ts -->
<g id="edge28" class="edge">
<title>src/utils/http/index.ts&#45;&gt;src/utils/http/axios/Axios.ts</title>
<path fill="none" stroke="#000000" stroke-width="2" stroke-opacity="0.200000" d="M618.11,-481.79C625.85,-479.79 634.31,-477.46 642,-475 642.41,-474.87 647.62,-472.89 654.24,-470.37"/>
<polygon fill="#000000" fill-opacity="0.200000" stroke="#000000" stroke-width="2" stroke-opacity="0.200000" points="655.2,-472.25 660.06,-468.15 653.7,-468.33 655.2,-472.25"/>
</g>
<!-- src/utils/http/axios/axiosResponse.ts -->
<g id="node32" class="node">
<title>src/utils/http/axios/axiosResponse.ts</title>
<g id="a_node32"><a xlink:href="src/utils/http/axios/axiosResponse.ts" xlink:title="axiosResponse.ts">
<path fill="#ddfeff" stroke="black" d="M915,-482C915,-482 835,-482 835,-482 832,-482 829,-479 829,-476 829,-476 829,-470 829,-470 829,-467 832,-464 835,-464 835,-464 915,-464 915,-464 918,-464 921,-467 921,-470 921,-470 921,-476 921,-476 921,-479 918,-482 915,-482"/>
<text text-anchor="start" x="837" y="-470.8" font-family="Helvetica,sans-Serif" font-size="9.00">axiosResponse.ts</text>
</a>
</g>
</g>
<!-- src/utils/http/index.ts&#45;&gt;src/utils/http/axios/axiosResponse.ts -->
<g id="edge29" class="edge">
<title>src/utils/http/index.ts&#45;&gt;src/utils/http/axios/axiosResponse.ts</title>
<path fill="none" stroke="#000000" stroke-width="2" stroke-opacity="0.200000" d="M618,-490.12C659.89,-493.06 744.82,-497.05 816,-488 823.5,-487.05 831.41,-485.43 838.9,-483.59"/>
<polygon fill="#000000" fill-opacity="0.200000" stroke="#000000" stroke-width="2" stroke-opacity="0.200000" points="839.78,-485.54 845.07,-482.01 838.74,-481.47 839.78,-485.54"/>
</g>
<!-- src/utils/http/axios/axiosTransform.ts -->
<g id="node33" class="node">
<title>src/utils/http/axios/axiosTransform.ts</title>
<g id="a_node33"><a xlink:href="src/utils/http/axios/axiosTransform.ts" xlink:title="axiosTransform.ts">
<path fill="#ddfeff" stroke="black" d="M810,-482C810,-482 731,-482 731,-482 728,-482 725,-479 725,-476 725,-476 725,-470 725,-470 725,-467 728,-464 731,-464 731,-464 810,-464 810,-464 813,-464 816,-467 816,-470 816,-470 816,-476 816,-476 816,-479 813,-482 810,-482"/>
<text text-anchor="start" x="733" y="-470.8" font-family="Helvetica,sans-Serif" font-size="9.00">axiosTransform.ts</text>
</a>
</g>
</g>
<!-- src/utils/http/index.ts&#45;&gt;src/utils/http/axios/axiosTransform.ts -->
<g id="edge30" class="edge">
<title>src/utils/http/index.ts&#45;&gt;src/utils/http/axios/axiosTransform.ts</title>
<path fill="none" stroke="#000000" stroke-width="2" stroke-opacity="0.200000" d="M618.19,-485.79C644.61,-483.55 686.07,-480.05 718.92,-477.27"/>
<polygon fill="#000000" fill-opacity="0.200000" stroke="#000000" stroke-width="2" stroke-opacity="0.200000" points="719.15,-479.36 724.95,-476.76 718.79,-475.18 719.15,-479.36"/>
</g>
<!-- src/components/HeadingLabel.tsx -->
<g id="node5" class="node">
<title>src/components/HeadingLabel.tsx</title>
<g id="a_node5"><a xlink:href="src/components/HeadingLabel.tsx" xlink:title="HeadingLabel.tsx">
<path fill="#bbfeff" stroke="black" d="M437,-376C437,-376 360,-376 360,-376 357,-376 354,-373 354,-370 354,-370 354,-364 354,-364 354,-361 357,-358 360,-358 360,-358 437,-358 437,-358 440,-358 443,-361 443,-364 443,-364 443,-370 443,-370 443,-373 440,-376 437,-376"/>
<text text-anchor="start" x="362" y="-364.8" font-family="Helvetica,sans-Serif" font-size="9.00">HeadingLabel.tsx</text>
</a>
</g>
</g>
<!-- src/components/SvgIcon.vue -->
<g id="node6" class="node">
<title>src/components/SvgIcon.vue</title>
<g id="a_node6"><a xlink:href="src/components/SvgIcon.vue" xlink:title="SvgIcon.vue">
<path fill="#ccffcc" stroke="black" d="M425,-346C425,-346 372,-346 372,-346 369,-346 366,-343 366,-340 366,-340 366,-334 366,-334 366,-331 369,-328 372,-328 372,-328 425,-328 425,-328 428,-328 431,-331 431,-334 431,-334 431,-340 431,-340 431,-343 428,-346 425,-346"/>
<text text-anchor="start" x="374" y="-334.8" font-family="Helvetica,sans-Serif" font-size="9.00">SvgIcon.vue</text>
</a>
</g>
</g>
<!-- src/components/TodoList/index.vue -->
<g id="node7" class="node">
<title>src/components/TodoList/index.vue</title>
<g id="a_node7"><a xlink:href="src/components/TodoList/index.vue" xlink:title="index.vue">
<path fill="#41f083" stroke="black" d="M420,-410C420,-410 377,-410 377,-410 374,-410 371,-407 371,-404 371,-404 371,-398 371,-398 371,-395 374,-392 377,-392 377,-392 420,-392 420,-392 423,-392 426,-395 426,-398 426,-398 426,-404 426,-404 426,-407 423,-410 420,-410"/>
<text text-anchor="start" x="379" y="-398.8" font-family="Helvetica,sans-Serif" font-size="9.00">index.vue</text>
</a>
</g>
</g>
<!-- src/components/TodoList/useTodos.ts -->
<g id="node8" class="node">
<title>src/components/TodoList/useTodos.ts</title>
<g id="a_node8"><a xlink:href="src/components/TodoList/useTodos.ts" xlink:title="useTodos.ts">
<path fill="#ddfeff" stroke="black" d="M518,-410C518,-410 462,-410 462,-410 459,-410 456,-407 456,-404 456,-404 456,-398 456,-398 456,-395 459,-392 462,-392 462,-392 518,-392 518,-392 521,-392 524,-395 524,-398 524,-398 524,-404 524,-404 524,-407 521,-410 518,-410"/>
<text text-anchor="start" x="464" y="-398.8" font-family="Helvetica,sans-Serif" font-size="9.00">useTodos.ts</text>
</a>
</g>
</g>
<!-- src/components/TodoList/index.vue&#45;&gt;src/components/TodoList/useTodos.ts -->
<g id="edge3" class="edge">
<title>src/components/TodoList/index.vue&#45;&gt;src/components/TodoList/useTodos.ts</title>
<path fill="none" stroke="#000000" stroke-width="2" stroke-opacity="0.200000" d="M426.35,-401C433.59,-401 441.58,-401 449.36,-401"/>
<polygon fill="#000000" fill-opacity="0.200000" stroke="#000000" stroke-width="2" stroke-opacity="0.200000" points="449.83,-403.1 455.83,-401 449.83,-398.9 449.83,-403.1"/>
</g>
<!-- src/utils/storage.ts -->
<g id="node9" class="node">
<title>src/utils/storage.ts</title>
<g id="a_node9"><a xlink:href="src/utils/storage.ts" xlink:title="storage.ts">
<path fill="#ddfeff" stroke="black" d="M614,-366C614,-366 568,-366 568,-366 565,-366 562,-363 562,-360 562,-360 562,-354 562,-354 562,-351 565,-348 568,-348 568,-348 614,-348 614,-348 617,-348 620,-351 620,-354 620,-354 620,-360 620,-360 620,-363 617,-366 614,-366"/>
<text text-anchor="start" x="570" y="-354.8" font-family="Helvetica,sans-Serif" font-size="9.00">storage.ts</text>
</a>
</g>
</g>
<!-- src/components/TodoList/useTodos.ts&#45;&gt;src/utils/storage.ts -->
<g id="edge4" class="edge">
<title>src/components/TodoList/useTodos.ts&#45;&gt;src/utils/storage.ts</title>
<path fill="none" stroke="#000000" stroke-width="2" stroke-opacity="0.200000" d="M507.69,-391.8C518.91,-385.79 534.13,-377.98 548,-372 551.02,-370.7 554.2,-369.41 557.39,-368.18"/>
<polygon fill="#000000" fill-opacity="0.200000" stroke="#000000" stroke-width="2" stroke-opacity="0.200000" points="558.26,-370.1 563.14,-366.02 556.78,-366.17 558.26,-370.1"/>
</g>
<!-- src/components/button/Button.spec.ts -->
<g id="node10" class="node">
<title>src/components/button/Button.spec.ts</title>
<g id="a_node10"><a xlink:href="src/components/button/Button.spec.ts" xlink:title="Button.spec.ts">
<path fill="#ddfeff" stroke="black" d="M430,-470C430,-470 367,-470 367,-470 364,-470 361,-467 361,-464 361,-464 361,-458 361,-458 361,-455 364,-452 367,-452 367,-452 430,-452 430,-452 433,-452 436,-455 436,-458 436,-458 436,-464 436,-464 436,-467 433,-470 430,-470"/>
<text text-anchor="start" x="369" y="-458.8" font-family="Helvetica,sans-Serif" font-size="9.00">Button.spec.ts</text>
</a>
</g>
</g>
<!-- src/components/button/Button.vue -->
<g id="node11" class="node">
<title>src/components/button/Button.vue</title>
<g id="a_node11"><a xlink:href="src/components/button/Button.vue" xlink:title="Button.vue">
<path fill="#41f083" stroke="black" d="M513.5,-470C513.5,-470 466.5,-470 466.5,-470 463.5,-470 460.5,-467 460.5,-464 460.5,-464 460.5,-458 460.5,-458 460.5,-455 463.5,-452 466.5,-452 466.5,-452 513.5,-452 513.5,-452 516.5,-452 519.5,-455 519.5,-458 519.5,-458 519.5,-464 519.5,-464 519.5,-467 516.5,-470 513.5,-470"/>
<text text-anchor="start" x="468.5" y="-458.8" font-family="Helvetica,sans-Serif" font-size="9.00">Button.vue</text>
</a>
</g>
</g>
<!-- src/components/button/Button.spec.ts&#45;&gt;src/components/button/Button.vue -->
<g id="edge5" class="edge">
<title>src/components/button/Button.spec.ts&#45;&gt;src/components/button/Button.vue</title>
<path fill="none" stroke="#000000" stroke-width="2" stroke-opacity="0.200000" d="M436.16,-461C442.12,-461 448.27,-461 454.18,-461"/>
<polygon fill="#000000" fill-opacity="0.200000" stroke="#000000" stroke-width="2" stroke-opacity="0.200000" points="454.48,-463.1 460.48,-461 454.48,-458.9 454.48,-463.1"/>
</g>
<!-- src/utils/index.ts -->
<g id="node12" class="node">
<title>src/utils/index.ts</title>
<g id="a_node12"><a xlink:href="src/utils/index.ts" xlink:title="index.ts">
<path fill="#ddfeff" stroke="black" d="M612,-396C612,-396 570,-396 570,-396 567,-396 564,-393 564,-390 564,-390 564,-384 564,-384 564,-381 567,-378 570,-378 570,-378 612,-378 612,-378 615,-378 618,-381 618,-384 618,-384 618,-390 618,-390 618,-393 615,-396 612,-396"/>
<text text-anchor="start" x="575" y="-384.8" font-family="Helvetica,sans-Serif" font-size="9.00">index.ts</text>
</a>
</g>
</g>
<!-- src/components/button/Button.vue&#45;&gt;src/utils/index.ts -->
<g id="edge6" class="edge">
<title>src/components/button/Button.vue&#45;&gt;src/utils/index.ts</title>
<path fill="none" stroke="#000000" stroke-width="2" stroke-opacity="0.200000" d="M519.68,-453.36C527.26,-450.07 534.78,-445.45 540,-439 550.59,-425.93 536.9,-414.64 548,-402 550.88,-398.72 554.53,-396.16 558.47,-394.15"/>
<polygon fill="#000000" fill-opacity="0.200000" stroke="#000000" stroke-width="2" stroke-opacity="0.200000" points="559.31,-396.08 563.97,-391.76 557.63,-392.23 559.31,-396.08"/>
</g>
<!-- src/env.d.ts -->
<g id="node13" class="node">
<title>src/env.d.ts</title>
<g id="a_node13"><a xlink:href="src/env.d.ts" xlink:title="env.d.ts">
<path fill="#ccffcc" stroke="black" d="M64,-470C64,-470 22,-470 22,-470 19,-470 16,-467 16,-464 16,-464 16,-458 16,-458 16,-455 19,-452 22,-452 22,-452 64,-452 64,-452 67,-452 70,-455 70,-458 70,-458 70,-464 70,-464 70,-467 67,-470 64,-470"/>
<text text-anchor="start" x="27" y="-458.8" font-family="Helvetica,sans-Serif" font-size="9.00">env.d.ts</text>
</a>
</g>
</g>
<!-- src/layout/basic/Header.vue -->
<g id="node14" class="node">
<title>src/layout/basic/Header.vue</title>
<g id="a_node14"><a xlink:href="src/layout/basic/Header.vue" xlink:title="Header.vue">
<path fill="#41f083" stroke="black" d="M424.5,-50C424.5,-50 372.5,-50 372.5,-50 369.5,-50 366.5,-47 366.5,-44 366.5,-44 366.5,-38 366.5,-38 366.5,-35 369.5,-32 372.5,-32 372.5,-32 424.5,-32 424.5,-32 427.5,-32 430.5,-35 430.5,-38 430.5,-38 430.5,-44 430.5,-44 430.5,-47 427.5,-50 424.5,-50"/>
<text text-anchor="start" x="374.5" y="-38.8" font-family="Helvetica,sans-Serif" font-size="9.00">Header.vue</text>
</a>
</g>
</g>
<!-- src/layout/basic/index.vue -->
<g id="node15" class="node">
<title>src/layout/basic/index.vue</title>
<g id="a_node15"><a xlink:href="src/layout/basic/index.vue" xlink:title="index.vue">
<path fill="#41f083" stroke="black" d="M323,-50C323,-50 280,-50 280,-50 277,-50 274,-47 274,-44 274,-44 274,-38 274,-38 274,-35 277,-32 280,-32 280,-32 323,-32 323,-32 326,-32 329,-35 329,-38 329,-38 329,-44 329,-44 329,-47 326,-50 323,-50"/>
<text text-anchor="start" x="282" y="-38.8" font-family="Helvetica,sans-Serif" font-size="9.00">index.vue</text>
</a>
</g>
</g>
<!-- src/layout/basic/index.vue&#45;&gt;src/layout/basic/Header.vue -->
<g id="edge7" class="edge">
<title>src/layout/basic/index.vue&#45;&gt;src/layout/basic/Header.vue</title>
<path fill="none" stroke="#000000" stroke-width="2" stroke-opacity="0.200000" d="M329.22,-41C338.85,-41 349.9,-41 360.27,-41"/>
<polygon fill="#000000" fill-opacity="0.200000" stroke="#000000" stroke-width="2" stroke-opacity="0.200000" points="360.28,-43.1 366.28,-41 360.28,-38.9 360.28,-43.1"/>
</g>
<!-- src/main.ts -->
<g id="node16" class="node">
<title>src/main.ts</title>
<g id="a_node16"><a xlink:href="src/main.ts" xlink:title="main.ts">
<path fill="#ddfeff" stroke="black" d="M64,-228C64,-228 22,-228 22,-228 19,-228 16,-225 16,-222 16,-222 16,-216 16,-216 16,-213 19,-210 22,-210 22,-210 64,-210 64,-210 67,-210 70,-213 70,-216 70,-216 70,-222 70,-222 70,-225 67,-228 64,-228"/>
<text text-anchor="start" x="27.5" y="-216.8" font-family="Helvetica,sans-Serif" font-size="9.00">main.ts</text>
</a>
</g>
</g>
<!-- src/main.ts&#45;&gt;src/App.vue -->
<g id="edge8" class="edge">
<title>src/main.ts&#45;&gt;src/App.vue</title>
<path fill="none" stroke="#000000" stroke-width="2" stroke-opacity="0.200000" d="M45.18,-209.75C47.87,-192.59 55.98,-155.68 78,-135 80.87,-132.31 84.27,-130.13 87.87,-128.37"/>
<polygon fill="#000000" fill-opacity="0.200000" stroke="#000000" stroke-width="2" stroke-opacity="0.200000" points="88.94,-130.2 93.66,-125.94 87.31,-126.33 88.94,-130.2"/>
</g>
<!-- src/router/index.ts -->
<g id="node17" class="node">
<title>src/router/index.ts</title>
<g id="a_node17"><a xlink:href="src/router/index.ts" xlink:title="index.ts">
<path fill="#ddfeff" stroke="black" d="M142,-194C142,-194 100,-194 100,-194 97,-194 94,-191 94,-188 94,-188 94,-182 94,-182 94,-179 97,-176 100,-176 100,-176 142,-176 142,-176 145,-176 148,-179 148,-182 148,-182 148,-188 148,-188 148,-191 145,-194 142,-194"/>
<text text-anchor="start" x="105" y="-182.8" font-family="Helvetica,sans-Serif" font-size="9.00">index.ts</text>
</a>
</g>
</g>
<!-- src/main.ts&#45;&gt;src/router/index.ts -->
<g id="edge9" class="edge">
<title>src/main.ts&#45;&gt;src/router/index.ts</title>
<path fill="none" stroke="#000000" stroke-width="2" stroke-opacity="0.200000" d="M57.87,-209.95C63.9,-206.25 71.14,-202.12 78,-199 81.23,-197.53 84.66,-196.14 88.11,-194.84"/>
<polygon fill="#000000" fill-opacity="0.200000" stroke="#000000" stroke-width="2" stroke-opacity="0.200000" points="88.97,-196.76 93.91,-192.75 87.55,-192.81 88.97,-196.76"/>
</g>
<!-- src/router/guard/index.ts -->
<g id="node18" class="node">
<title>src/router/guard/index.ts</title>
<g id="a_node18"><a xlink:href="src/router/guard/index.ts" xlink:title="index.ts">
<path fill="#ddfeff" stroke="black" d="M142,-228C142,-228 100,-228 100,-228 97,-228 94,-225 94,-222 94,-222 94,-216 94,-216 94,-213 97,-210 100,-210 100,-210 142,-210 142,-210 145,-210 148,-213 148,-216 148,-216 148,-222 148,-222 148,-225 145,-228 142,-228"/>
<text text-anchor="start" x="105" y="-216.8" font-family="Helvetica,sans-Serif" font-size="9.00">index.ts</text>
</a>
</g>
</g>
<!-- src/main.ts&#45;&gt;src/router/guard/index.ts -->
<g id="edge10" class="edge">
<title>src/main.ts&#45;&gt;src/router/guard/index.ts</title>
<path fill="none" stroke="#000000" stroke-width="2" stroke-opacity="0.200000" d="M70.15,-219C75.77,-219 81.76,-219 87.58,-219"/>
<polygon fill="#000000" fill-opacity="0.200000" stroke="#000000" stroke-width="2" stroke-opacity="0.200000" points="87.8,-221.1 93.8,-219 87.8,-216.9 87.8,-221.1"/>
</g>
<!-- src/store/index.ts -->
<g id="node19" class="node">
<title>src/store/index.ts</title>
<g id="a_node19"><a xlink:href="src/store/index.ts" xlink:title="index.ts">
<path fill="#ddfeff" stroke="black" d="M142,-314C142,-314 100,-314 100,-314 97,-314 94,-311 94,-308 94,-308 94,-302 94,-302 94,-299 97,-296 100,-296 100,-296 142,-296 142,-296 145,-296 148,-299 148,-302 148,-302 148,-308 148,-308 148,-311 145,-314 142,-314"/>
<text text-anchor="start" x="105" y="-302.8" font-family="Helvetica,sans-Serif" font-size="9.00">index.ts</text>
</a>
</g>
</g>
<!-- src/main.ts&#45;&gt;src/store/index.ts -->
<g id="edge11" class="edge">
<title>src/main.ts&#45;&gt;src/store/index.ts</title>
<path fill="none" stroke="#000000" stroke-width="2" stroke-opacity="0.200000" d="M52.13,-228.2C65.5,-243.33 92.2,-273.54 107.83,-291.23"/>
<polygon fill="#000000" fill-opacity="0.200000" stroke="#000000" stroke-width="2" stroke-opacity="0.200000" points="106.38,-292.76 111.93,-295.86 109.53,-289.98 106.38,-292.76"/>
</g>
<!-- src/styles/index.scss -->
<g id="node20" class="node">
<title>src/styles/index.scss</title>
<g id="a_node20"><a xlink:href="src/styles/index.scss" xlink:title="index.scss">
<path fill="#ffffcc" stroke="black" d="M145.5,-464C145.5,-464 96.5,-464 96.5,-464 93.5,-464 90.5,-461 90.5,-458 90.5,-458 90.5,-452 90.5,-452 90.5,-449 93.5,-446 96.5,-446 96.5,-446 145.5,-446 145.5,-446 148.5,-446 151.5,-449 151.5,-452 151.5,-452 151.5,-458 151.5,-458 151.5,-461 148.5,-464 145.5,-464"/>
<text text-anchor="start" x="98.5" y="-452.8" font-family="Helvetica,sans-Serif" font-size="9.00">index.scss</text>
</a>
</g>
</g>
<!-- src/main.ts&#45;&gt;src/styles/index.scss -->
<g id="edge12" class="edge">
<title>src/main.ts&#45;&gt;src/styles/index.scss</title>
<path fill="none" stroke="#000000" stroke-width="2" stroke-opacity="0.200000" d="M43.96,-228.14C44.19,-256.29 47.49,-343.65 78,-407 84.38,-420.25 95.45,-432.68 104.62,-441.56"/>
<polygon fill="#000000" fill-opacity="0.200000" stroke="#000000" stroke-width="2" stroke-opacity="0.200000" points="103.4,-443.3 109.21,-445.87 106.28,-440.23 103.4,-443.3"/>
</g>
<!-- src/router/routers/index.ts -->
<g id="node27" class="node">
<title>src/router/routers/index.ts</title>
<g id="a_node27"><a xlink:href="src/router/routers/index.ts" xlink:title="index.ts">
<path fill="#ddfeff" stroke="black" d="M228,-183C228,-183 186,-183 186,-183 183,-183 180,-180 180,-177 180,-177 180,-171 180,-171 180,-168 183,-165 186,-165 186,-165 228,-165 228,-165 231,-165 234,-168 234,-171 234,-171 234,-177 234,-177 234,-180 231,-183 228,-183"/>
<text text-anchor="start" x="191" y="-171.8" font-family="Helvetica,sans-Serif" font-size="9.00">index.ts</text>
</a>
</g>
</g>
<!-- src/router/index.ts&#45;&gt;src/router/routers/index.ts -->
<g id="edge19" class="edge">
<title>src/router/index.ts&#45;&gt;src/router/routers/index.ts</title>
<path fill="none" stroke="#000000" stroke-width="2" stroke-opacity="0.200000" d="M148.12,-181.58C156.18,-180.52 165.15,-179.35 173.58,-178.25"/>
<polygon fill="#000000" fill-opacity="0.200000" stroke="#000000" stroke-width="2" stroke-opacity="0.200000" points="174.22,-180.28 179.9,-177.42 173.68,-176.11 174.22,-180.28"/>
</g>
<!-- src/utils/auth.ts -->
<g id="node26" class="node">
<title>src/utils/auth.ts</title>
<g id="a_node26"><a xlink:href="src/utils/auth.ts" xlink:title="auth.ts">
<path fill="#ddfeff" stroke="black" d="M612,-426C612,-426 570,-426 570,-426 567,-426 564,-423 564,-420 564,-420 564,-414 564,-414 564,-411 567,-408 570,-408 570,-408 612,-408 612,-408 615,-408 618,-411 618,-414 618,-414 618,-420 618,-420 618,-423 615,-426 612,-426"/>
<text text-anchor="start" x="577" y="-414.8" font-family="Helvetica,sans-Serif" font-size="9.00">auth.ts</text>
</a>
</g>
</g>
<!-- src/router/guard/index.ts&#45;&gt;src/utils/auth.ts -->
<g id="edge18" class="edge">
<title>src/router/guard/index.ts&#45;&gt;src/utils/auth.ts</title>
<path fill="none" stroke="#000000" stroke-width="2" stroke-opacity="0.200000" d="M128.3,-228.21C136.8,-240.8 152.24,-264.19 164,-285 230.95,-403.44 164.45,-559 300.5,-559 300.5,-559 300.5,-559 399.5,-559 430.9,-559 518.2,-566.6 540,-544 557.48,-525.88 532.57,-450.89 548,-431 550.72,-427.49 554.35,-424.86 558.34,-422.87"/>
<polygon fill="#000000" fill-opacity="0.200000" stroke="#000000" stroke-width="2" stroke-opacity="0.200000" points="559.21,-424.79 563.96,-420.56 557.61,-420.91 559.21,-424.79"/>
</g>
<!-- src/pages/About.vue -->
<g id="node21" class="node">
<title>src/pages/About.vue</title>
<g id="a_node21"><a xlink:href="src/pages/About.vue" xlink:title="About.vue">
<path fill="#41f083" stroke="black" d="M323.5,-136C323.5,-136 279.5,-136 279.5,-136 276.5,-136 273.5,-133 273.5,-130 273.5,-130 273.5,-124 273.5,-124 273.5,-121 276.5,-118 279.5,-118 279.5,-118 323.5,-118 323.5,-118 326.5,-118 329.5,-121 329.5,-124 329.5,-124 329.5,-130 329.5,-130 329.5,-133 326.5,-136 323.5,-136"/>
<text text-anchor="start" x="281.5" y="-124.8" font-family="Helvetica,sans-Serif" font-size="9.00">About.vue</text>
</a>
</g>
</g>
<!-- src/pages/About.vue&#45;&gt;src/components/HeadingLabel.tsx -->
<g id="edge14" class="edge">
<title>src/pages/About.vue&#45;&gt;src/components/HeadingLabel.tsx</title>
<path fill="none" stroke="#000000" stroke-width="2" stroke-opacity="0.200000" d="M329.66,-135.05C332.52,-136.91 335.08,-139.2 337,-142 350.17,-161.28 330.59,-333.63 345,-352 346.15,-353.47 347.44,-354.8 348.83,-356.01"/>
<polygon fill="#000000" fill-opacity="0.200000" stroke="#000000" stroke-width="2" stroke-opacity="0.200000" points="347.82,-357.87 353.93,-359.65 350.26,-354.45 347.82,-357.87"/>
</g>
<!-- src/pages/About.vue&#45;&gt;src/utils/index.ts -->
<g id="edge15" class="edge">
<title>src/pages/About.vue&#45;&gt;src/utils/index.ts</title>
<path fill="none" stroke="#000000" stroke-width="2" stroke-opacity="0.200000" d="M329.7,-135.02C332.56,-136.89 335.11,-139.18 337,-142 348.06,-158.47 330.82,-485.13 345,-499 375.98,-529.3 508.12,-528.36 540,-499 555.91,-484.35 534.82,-419.15 548,-402 550.72,-398.45 554.36,-395.74 558.35,-393.67"/>
<polygon fill="#000000" fill-opacity="0.200000" stroke="#000000" stroke-width="2" stroke-opacity="0.200000" points="559.3,-395.55 563.96,-391.23 557.62,-391.7 559.3,-395.55"/>
</g>
<!-- src/pages/Xlsx.vue -->
<g id="node22" class="node">
<title>src/pages/Xlsx.vue</title>
<g id="a_node22"><a xlink:href="src/pages/Xlsx.vue" xlink:title="Xlsx.vue">
<path fill="#41f083" stroke="black" d="M419.5,-136C419.5,-136 377.5,-136 377.5,-136 374.5,-136 371.5,-133 371.5,-130 371.5,-130 371.5,-124 371.5,-124 371.5,-121 374.5,-118 377.5,-118 377.5,-118 419.5,-118 419.5,-118 422.5,-118 425.5,-121 425.5,-124 425.5,-124 425.5,-130 425.5,-130 425.5,-133 422.5,-136 419.5,-136"/>
<text text-anchor="start" x="381.5" y="-124.8" font-family="Helvetica,sans-Serif" font-size="9.00">Xlsx.vue</text>
</a>
</g>
</g>
<!-- src/pages/About.vue&#45;&gt;src/pages/Xlsx.vue -->
<g id="edge13" class="edge">
<title>src/pages/About.vue&#45;&gt;src/pages/Xlsx.vue</title>
<path fill="none" stroke="#000000" stroke-width="2" stroke-opacity="0.200000" d="M329.72,-127C340.73,-127 353.53,-127 365.02,-127"/>
<polygon fill="#000000" fill-opacity="0.200000" stroke="#000000" stroke-width="2" stroke-opacity="0.200000" points="365.25,-129.1 371.25,-127 365.25,-124.9 365.25,-129.1"/>
</g>
<!-- src/pages/NotFound/404.vue -->
<g id="node23" class="node">
<title>src/pages/NotFound/404.vue</title>
<g id="a_node23"><a xlink:href="src/pages/NotFound/404.vue" xlink:title="404.vue">
<path fill="#41f083" stroke="black" d="M322.5,-200C322.5,-200 280.5,-200 280.5,-200 277.5,-200 274.5,-197 274.5,-194 274.5,-194 274.5,-188 274.5,-188 274.5,-185 277.5,-182 280.5,-182 280.5,-182 322.5,-182 322.5,-182 325.5,-182 328.5,-185 328.5,-188 328.5,-188 328.5,-194 328.5,-194 328.5,-197 325.5,-200 322.5,-200"/>
<text text-anchor="start" x="285" y="-188.8" font-family="Helvetica,sans-Serif" font-size="9.00">404.vue</text>
</a>
</g>
</g>
<!-- src/pages/home.vue -->
<g id="node24" class="node">
<title>src/pages/home.vue</title>
<g id="a_node24"><a xlink:href="src/pages/home.vue" xlink:title="home.vue">
<path fill="#41f083" stroke="black" d="M324,-166C324,-166 279,-166 279,-166 276,-166 273,-163 273,-160 273,-160 273,-154 273,-154 273,-151 276,-148 279,-148 279,-148 324,-148 324,-148 327,-148 330,-151 330,-154 330,-154 330,-160 330,-160 330,-163 327,-166 324,-166"/>
<text text-anchor="start" x="281" y="-154.8" font-family="Helvetica,sans-Serif" font-size="9.00">home.vue</text>
</a>
</g>
</g>
<!-- src/pages/home.vue&#45;&gt;src/components/TodoList/index.vue -->
<g id="edge16" class="edge">
<title>src/pages/home.vue&#45;&gt;src/components/TodoList/index.vue</title>
<path fill="none" stroke="#000000" stroke-width="2" stroke-opacity="0.200000" d="M330.29,-164.68C332.89,-166.38 335.22,-168.46 337,-171 350.84,-190.76 329.78,-369.28 345,-388 349.86,-393.98 356.99,-397.46 364.45,-399.43"/>
<polygon fill="#000000" fill-opacity="0.200000" stroke="#000000" stroke-width="2" stroke-opacity="0.200000" points="364.44,-401.57 370.74,-400.75 365.3,-397.46 364.44,-401.57"/>
</g>
<!-- src/pages/login/index.vue -->
<g id="node25" class="node">
<title>src/pages/login/index.vue</title>
<g id="a_node25"><a xlink:href="src/pages/login/index.vue" xlink:title="index.vue">
<path fill="#41f083" stroke="black" d="M323,-260C323,-260 280,-260 280,-260 277,-260 274,-257 274,-254 274,-254 274,-248 274,-248 274,-245 277,-242 280,-242 280,-242 323,-242 323,-242 326,-242 329,-245 329,-248 329,-248 329,-254 329,-254 329,-257 326,-260 323,-260"/>
<text text-anchor="start" x="282" y="-248.8" font-family="Helvetica,sans-Serif" font-size="9.00">index.vue</text>
</a>
</g>
</g>
<!-- src/pages/login/index.vue&#45;&gt;src/utils/auth.ts -->
<g id="edge17" class="edge">
<title>src/pages/login/index.vue&#45;&gt;src/utils/auth.ts</title>
<path fill="none" stroke="#000000" stroke-width="2" stroke-opacity="0.200000" d="M302.36,-260.27C301.87,-305.04 302.32,-498.23 345,-535 361.42,-549.14 524.1,-549.72 540,-535 557.01,-519.25 533.74,-449.27 548,-431 550.73,-427.5 554.37,-424.87 558.36,-422.89"/>
<polygon fill="#000000" fill-opacity="0.200000" stroke="#000000" stroke-width="2" stroke-opacity="0.200000" points="559.23,-424.8 563.98,-420.58 557.63,-420.92 559.23,-424.8"/>
</g>
<!-- src/router/routers/index.ts&#45;&gt;src/layout/basic/index.vue -->
<g id="edge22" class="edge">
<title>src/router/routers/index.ts&#45;&gt;src/layout/basic/index.vue</title>
<path fill="none" stroke="#000000" stroke-width="2" stroke-opacity="0.200000" d="M214.36,-164.86C230.2,-142.08 271.53,-82.66 290.59,-55.24"/>
<polygon fill="#000000" fill-opacity="0.200000" stroke="#000000" stroke-width="2" stroke-opacity="0.200000" points="292.4,-56.33 294.1,-50.21 288.95,-53.93 292.4,-56.33"/>
</g>
<!-- src/router/routers/index.ts&#45;&gt;src/pages/About.vue -->
<g id="edge23" class="edge">
<title>src/router/routers/index.ts&#45;&gt;src/pages/About.vue</title>
<path fill="none" stroke="#000000" stroke-width="2" stroke-opacity="0.200000" d="M220.68,-164.72C230.51,-157.82 244.66,-148.51 258,-142 260.99,-140.54 264.16,-139.15 267.36,-137.85"/>
<polygon fill="#000000" fill-opacity="0.200000" stroke="#000000" stroke-width="2" stroke-opacity="0.200000" points="268.3,-139.74 273.14,-135.61 266.78,-135.82 268.3,-139.74"/>
</g>
<!-- src/router/routers/index.ts&#45;&gt;src/pages/NotFound/404.vue -->
<g id="edge21" class="edge">
<title>src/router/routers/index.ts&#45;&gt;src/pages/NotFound/404.vue</title>
<path fill="none" stroke="#000000" stroke-width="2" stroke-opacity="0.200000" d="M234.26,-178.83C244.9,-180.78 257.28,-183.06 268.44,-185.11"/>
<polygon fill="#000000" fill-opacity="0.200000" stroke="#000000" stroke-width="2" stroke-opacity="0.200000" points="268.21,-187.2 274.5,-186.22 268.97,-183.07 268.21,-187.2"/>
</g>
<!-- src/router/routers/index.ts&#45;&gt;src/pages/home.vue -->
<g id="edge24" class="edge">
<title>src/router/routers/index.ts&#45;&gt;src/pages/home.vue</title>
<path fill="none" stroke="#000000" stroke-width="2" stroke-opacity="0.200000" d="M234.26,-169.17C244.35,-167.32 256.01,-165.18 266.71,-163.21"/>
<polygon fill="#000000" fill-opacity="0.200000" stroke="#000000" stroke-width="2" stroke-opacity="0.200000" points="267.36,-165.23 272.88,-162.08 266.6,-161.09 267.36,-165.23"/>
</g>
<!-- src/router/routers/index.ts&#45;&gt;src/pages/login/index.vue -->
<g id="edge20" class="edge">
<title>src/router/routers/index.ts&#45;&gt;src/pages/login/index.vue</title>
<path fill="none" stroke="#000000" stroke-width="2" stroke-opacity="0.200000" d="M214.62,-183.1C223.5,-194.83 240.2,-215.32 258,-229 262.84,-232.72 268.41,-236.12 273.88,-239.07"/>
<polygon fill="#000000" fill-opacity="0.200000" stroke="#000000" stroke-width="2" stroke-opacity="0.200000" points="273,-240.98 279.29,-241.87 274.93,-237.25 273,-240.98"/>
</g>
<!-- src/router/types.ts -->
<g id="node28" class="node">
<title>src/router/types.ts</title>
<g id="a_node28"><a xlink:href="src/router/types.ts" xlink:title="no&#45;orphans">
<path fill="#ccffcc" stroke="orange" d="M142,-164C142,-164 100,-164 100,-164 97,-164 94,-161 94,-158 94,-158 94,-152 94,-152 94,-149 97,-146 100,-146 100,-146 142,-146 142,-146 145,-146 148,-149 148,-152 148,-152 148,-158 148,-158 148,-161 145,-164 142,-164"/>
<text text-anchor="start" x="105" y="-152.8" font-family="Helvetica,sans-Serif" font-size="9.00" fill="orange">types.ts</text>
</a>
</g>
</g>
<!-- src/store/modules/app.ts -->
<g id="node29" class="node">
<title>src/store/modules/app.ts</title>
<g id="a_node29"><a xlink:href="src/store/modules/app.ts" xlink:title="no&#45;orphans">
<path fill="#ccffcc" stroke="orange" d="M142,-378C142,-378 100,-378 100,-378 97,-378 94,-375 94,-372 94,-372 94,-366 94,-366 94,-363 97,-360 100,-360 100,-360 142,-360 142,-360 145,-360 148,-363 148,-366 148,-366 148,-372 148,-372 148,-375 145,-378 142,-378"/>
<text text-anchor="start" x="108" y="-366.8" font-family="Helvetica,sans-Serif" font-size="9.00" fill="orange">app.ts</text>
</a>
</g>
</g>
<!-- src/store/modules/user.ts -->
<g id="node30" class="node">
<title>src/store/modules/user.ts</title>
<g id="a_node30"><a xlink:href="src/store/modules/user.ts" xlink:title="no&#45;orphans">
<path fill="#ccffcc" stroke="orange" d="M142,-348C142,-348 100,-348 100,-348 97,-348 94,-345 94,-342 94,-342 94,-336 94,-336 94,-333 97,-330 100,-330 100,-330 142,-330 142,-330 145,-330 148,-333 148,-336 148,-336 148,-342 148,-342 148,-345 145,-348 142,-348"/>
<text text-anchor="start" x="106.5" y="-336.8" font-family="Helvetica,sans-Serif" font-size="9.00" fill="orange">user.ts</text>
</a>
</g>
</g>
<!-- src/utils/http/axios/Axios.ts&#45;&gt;src/utils/http/axios/axiosResponse.ts -->
<g id="edge25" class="edge">
<title>src/utils/http/axios/Axios.ts&#45;&gt;src/utils/http/axios/axiosResponse.ts</title>
<path fill="none" stroke="#000000" stroke-width="2" stroke-opacity="0.200000" d="M712.01,-458.24C716.35,-458.14 720.8,-458.05 725,-458 765.44,-457.48 775.88,-452.9 816,-458 823.5,-458.95 831.41,-460.57 838.9,-462.41"/>
<polygon fill="#000000" fill-opacity="0.200000" stroke="#000000" stroke-width="2" stroke-opacity="0.200000" points="838.74,-464.53 845.07,-463.99 839.78,-460.46 838.74,-464.53"/>
</g>
<!-- src/utils/http/axios/Axios.ts&#45;&gt;src/utils/http/axios/axiosTransform.ts -->
<g id="edge26" class="edge">
<title>src/utils/http/axios/Axios.ts&#45;&gt;src/utils/http/axios/axiosTransform.ts</title>
<path fill="none" stroke="#000000" stroke-width="2" stroke-opacity="0.200000" d="M712.42,-463.43C714.55,-463.79 716.75,-464.16 718.98,-464.53"/>
<polygon fill="#000000" fill-opacity="0.200000" stroke="#000000" stroke-width="2" stroke-opacity="0.200000" points="718.67,-466.61 724.94,-465.53 719.37,-462.47 718.67,-466.61"/>
</g>
<!-- src/utils/http/axios/axiosTransform.ts&#45;&gt;src/utils/http/axios/axiosResponse.ts -->
<g id="edge27" class="edge">
<title>src/utils/http/axios/axiosTransform.ts&#45;&gt;src/utils/http/axios/axiosResponse.ts</title>
<path fill="none" stroke="#000000" stroke-width="2" stroke-opacity="0.200000" d="M816.16,-473C818.26,-473 820.38,-473 822.5,-473"/>
<polygon fill="#000000" fill-opacity="0.200000" stroke="#000000" stroke-width="2" stroke-opacity="0.200000" points="822.85,-475.1 828.85,-473 822.85,-470.9 822.85,-475.1"/>
</g>
<!-- src/utils/mouse.ts -->
<g id="node34" class="node">
<title>src/utils/mouse.ts</title>
<g id="a_node34"><a xlink:href="src/utils/mouse.ts" xlink:title="no&#45;orphans">
<path fill="#ccffcc" stroke="orange" d="M613,-336C613,-336 569,-336 569,-336 566,-336 563,-333 563,-330 563,-330 563,-324 563,-324 563,-321 566,-318 569,-318 569,-318 613,-318 613,-318 616,-318 619,-321 619,-324 619,-324 619,-330 619,-330 619,-333 616,-336 613,-336"/>
<text text-anchor="start" x="571" y="-324.8" font-family="Helvetica,sans-Serif" font-size="9.00" fill="orange">mouse.ts</text>
</a>
</g>
</g>
<!-- src/utils/transform.ts -->
<g id="node35" class="node">
<title>src/utils/transform.ts</title>
<g id="a_node35"><a xlink:href="src/utils/transform.ts" xlink:title="no&#45;orphans">
<path fill="#ccffcc" stroke="orange" d="M618,-306C618,-306 564,-306 564,-306 561,-306 558,-303 558,-300 558,-300 558,-294 558,-294 558,-291 561,-288 564,-288 564,-288 618,-288 618,-288 621,-288 624,-291 624,-294 624,-294 624,-300 624,-300 624,-303 621,-306 618,-306"/>
<text text-anchor="start" x="566" y="-294.8" font-family="Helvetica,sans-Serif" font-size="9.00" fill="orange">transform.ts</text>
</a>
</g>
</g>
</g>
</svg>
