<?xml version="1.0" encoding="UTF-8" standalone="no"?>
<!DOCTYPE svg PUBLIC "-//W3C//DTD SVG 1.1//EN"
 "http://www.w3.org/Graphics/SVG/1.1/DTD/svg11.dtd">
<!-- Generated by graphviz version 6.0.2 (20221011.1828)
 -->
<!-- Title: dependency&#45;cruiser output Pages: 1 -->
<svg width="968pt" height="696pt"
 viewBox="0.00 0.00 968.00 696.00" xmlns="http://www.w3.org/2000/svg" xmlns:xlink="http://www.w3.org/1999/xlink">
<g id="graph0" class="graph" transform="scale(1 1) rotate(0) translate(4 692)">
<title>dependency&#45;cruiser output</title>
<polygon fill="white" stroke="none" points="-4,4 -4,-692 964,-692 964,4 -4,4"/>
<g id="clust1" class="cluster">
<title>cluster_src</title>
<path fill="#ffffff" stroke="black" stroke-width="2" d="M20,-8C20,-8 940,-8 940,-8 946,-8 952,-14 952,-20 952,-20 952,-668 952,-668 952,-674 946,-680 940,-680 940,-680 20,-680 20,-680 14,-680 8,-674 8,-668 8,-668 8,-20 8,-20 8,-14 14,-8 20,-8"/>
<text text-anchor="middle" x="480" y="-668.8" font-family="Helvetica,sans-Serif" font-weight="bold" font-size="9.00">src</text>
</g>
<g id="clust2" class="cluster">
<title>cluster_src/api</title>
<path fill="#ffffff" stroke="black" stroke-width="2" d="M466,-568C466,-568 629,-568 629,-568 635,-568 641,-574 641,-580 641,-580 641,-642 641,-642 641,-648 635,-654 629,-654 629,-654 466,-654 466,-654 460,-654 454,-648 454,-642 454,-642 454,-580 454,-580 454,-574 460,-568 466,-568"/>
<text text-anchor="middle" x="547.5" y="-642.8" font-family="Helvetica,sans-Serif" font-weight="bold" font-size="9.00">api</text>
</g>
<g id="clust3" class="cluster">
<title>cluster_src/api/model</title>
<path fill="#ffffff" stroke="black" stroke-width="2" d="M559,-576C559,-576 621,-576 621,-576 627,-576 633,-582 633,-588 633,-588 633,-616 633,-616 633,-622 627,-628 621,-628 621,-628 559,-628 559,-628 553,-628 547,-622 547,-616 547,-616 547,-588 547,-588 547,-582 553,-576 559,-576"/>
<text text-anchor="middle" x="590" y="-616.8" font-family="Helvetica,sans-Serif" font-weight="bold" font-size="9.00">model</text>
</g>
<g id="clust4" class="cluster">
<title>cluster_src/components</title>
<path fill="#ffffff" stroke="black" stroke-width="2" d="M357,-320C357,-320 527,-320 527,-320 533,-320 539,-326 539,-332 539,-332 539,-510 539,-510 539,-516 533,-522 527,-522 527,-522 357,-522 357,-522 351,-522 345,-516 345,-510 345,-510 345,-332 345,-332 345,-326 351,-320 357,-320"/>
<text text-anchor="middle" x="442" y="-510.8" font-family="Helvetica,sans-Serif" font-weight="bold" font-size="9.00">components</text>
</g>
<g id="clust5" class="cluster">
<title>cluster_src/components/TodoList</title>
<path fill="#ffffff" stroke="black" stroke-width="2" d="M374,-384C374,-384 519,-384 519,-384 525,-384 531,-390 531,-396 531,-396 531,-424 531,-424 531,-430 525,-436 519,-436 519,-436 374,-436 374,-436 368,-436 362,-430 362,-424 362,-424 362,-396 362,-396 362,-390 368,-384 374,-384"/>
<text text-anchor="middle" x="446.5" y="-424.8" font-family="Helvetica,sans-Serif" font-weight="bold" font-size="9.00">TodoList</text>
</g>
<g id="clust6" class="cluster">
<title>cluster_src/components/button</title>
<path fill="#ffffff" stroke="black" stroke-width="2" d="M372,-444C372,-444 423,-444 423,-444 429,-444 435,-450 435,-456 435,-456 435,-484 435,-484 435,-490 429,-496 423,-496 423,-496 372,-496 372,-496 366,-496 360,-490 360,-484 360,-484 360,-456 360,-456 360,-450 366,-444 372,-444"/>
<text text-anchor="middle" x="397.5" y="-484.8" font-family="Helvetica,sans-Serif" font-weight="bold" font-size="9.00">button</text>
</g>
<g id="clust7" class="cluster">
<title>cluster_src/layout</title>
<path fill="#ffffff" stroke="black" stroke-width="2" d="M270,-16C270,-16 433.5,-16 433.5,-16 439.5,-16 445.5,-22 445.5,-28 445.5,-28 445.5,-90 445.5,-90 445.5,-96 439.5,-102 433.5,-102 433.5,-102 270,-102 270,-102 264,-102 258,-96 258,-90 258,-90 258,-28 258,-28 258,-22 264,-16 270,-16"/>
<text text-anchor="middle" x="351.75" y="-90.8" font-family="Helvetica,sans-Serif" font-weight="bold" font-size="9.00">layout</text>
</g>
<g id="clust8" class="cluster">
<title>cluster_src/layout/basic</title>
<path fill="#ffffff" stroke="black" stroke-width="2" d="M278,-24C278,-24 425.5,-24 425.5,-24 431.5,-24 437.5,-30 437.5,-36 437.5,-36 437.5,-64 437.5,-64 437.5,-70 431.5,-76 425.5,-76 425.5,-76 278,-76 278,-76 272,-76 266,-70 266,-64 266,-64 266,-36 266,-36 266,-30 272,-24 278,-24"/>
<text text-anchor="middle" x="351.75" y="-64.8" font-family="Helvetica,sans-Serif" font-weight="bold" font-size="9.00">basic</text>
</g>
<g id="clust9" class="cluster">
<title>cluster_src/pages</title>
<path fill="#ffffff" stroke="black" stroke-width="2" d="M270,-110C270,-110 420.5,-110 420.5,-110 426.5,-110 432.5,-116 432.5,-122 432.5,-122 432.5,-300 432.5,-300 432.5,-306 426.5,-312 420.5,-312 420.5,-312 270,-312 270,-312 264,-312 258,-306 258,-300 258,-300 258,-122 258,-122 258,-116 264,-110 270,-110"/>
<text text-anchor="middle" x="345.25" y="-300.8" font-family="Helvetica,sans-Serif" font-weight="bold" font-size="9.00">pages</text>
</g>
<g id="clust10" class="cluster">
<title>cluster_src/pages/NotFound</title>
<path fill="#ffffff" stroke="black" stroke-width="2" d="M278.5,-234C278.5,-234 324.5,-234 324.5,-234 330.5,-234 336.5,-240 336.5,-246 336.5,-246 336.5,-274 336.5,-274 336.5,-280 330.5,-286 324.5,-286 324.5,-286 278.5,-286 278.5,-286 272.5,-286 266.5,-280 266.5,-274 266.5,-274 266.5,-246 266.5,-246 266.5,-240 272.5,-234 278.5,-234"/>
<text text-anchor="middle" x="301.5" y="-274.8" font-family="Helvetica,sans-Serif" font-weight="bold" font-size="9.00">NotFound</text>
</g>
<g id="clust11" class="cluster">
<title>cluster_src/pages/login</title>
<path fill="#ffffff" stroke="black" stroke-width="2" d="M278,-174C278,-174 325,-174 325,-174 331,-174 337,-180 337,-186 337,-186 337,-214 337,-214 337,-220 331,-226 325,-226 325,-226 278,-226 278,-226 272,-226 266,-220 266,-214 266,-214 266,-186 266,-186 266,-180 272,-174 278,-174"/>
<text text-anchor="middle" x="301.5" y="-214.8" font-family="Helvetica,sans-Serif" font-weight="bold" font-size="9.00">login</text>
</g>
<g id="clust12" class="cluster">
<title>cluster_src/router</title>
<path fill="#ffffff" stroke="black" stroke-width="2" d="M90,-138C90,-138 238,-138 238,-138 244,-138 250,-144 250,-150 250,-150 250,-268 250,-268 250,-274 244,-280 238,-280 238,-280 90,-280 90,-280 84,-280 78,-274 78,-268 78,-268 78,-150 78,-150 78,-144 84,-138 90,-138"/>
<text text-anchor="middle" x="164" y="-268.8" font-family="Helvetica,sans-Serif" font-weight="bold" font-size="9.00">router</text>
</g>
<g id="clust14" class="cluster">
<title>cluster_src/router/routers</title>
<path fill="#ffffff" stroke="black" stroke-width="2" d="M184,-157C184,-157 230,-157 230,-157 236,-157 242,-163 242,-169 242,-169 242,-197 242,-197 242,-203 236,-209 230,-209 230,-209 184,-209 184,-209 178,-209 172,-203 172,-197 172,-197 172,-169 172,-169 172,-163 178,-157 184,-157"/>
<text text-anchor="middle" x="207" y="-197.8" font-family="Helvetica,sans-Serif" font-weight="bold" font-size="9.00">routers</text>
</g>
<g id="clust13" class="cluster">
<title>cluster_src/router/guard</title>
<path fill="#ffffff" stroke="black" stroke-width="2" d="M98,-202C98,-202 144,-202 144,-202 150,-202 156,-208 156,-214 156,-214 156,-242 156,-242 156,-248 150,-254 144,-254 144,-254 98,-254 98,-254 92,-254 86,-248 86,-242 86,-242 86,-214 86,-214 86,-208 92,-202 98,-202"/>
<text text-anchor="middle" x="121" y="-242.8" font-family="Helvetica,sans-Serif" font-weight="bold" font-size="9.00">guard</text>
</g>
<g id="clust15" class="cluster">
<title>cluster_src/store</title>
<path fill="#ffffff" stroke="black" stroke-width="2" d="M90,-288C90,-288 152,-288 152,-288 158,-288 164,-294 164,-300 164,-300 164,-418 164,-418 164,-424 158,-430 152,-430 152,-430 90,-430 90,-430 84,-430 78,-424 78,-418 78,-418 78,-300 78,-300 78,-294 84,-288 90,-288"/>
<text text-anchor="middle" x="121" y="-418.8" font-family="Helvetica,sans-Serif" font-weight="bold" font-size="9.00">store</text>
</g>
<g id="clust16" class="cluster">
<title>cluster_src/store/modules</title>
<path fill="#ffffff" stroke="black" stroke-width="2" d="M98,-322C98,-322 144,-322 144,-322 150,-322 156,-328 156,-334 156,-334 156,-392 156,-392 156,-398 150,-404 144,-404 144,-404 98,-404 98,-404 92,-404 86,-398 86,-392 86,-392 86,-334 86,-334 86,-328 92,-322 98,-322"/>
<text text-anchor="middle" x="121" y="-392.8" font-family="Helvetica,sans-Serif" font-weight="bold" font-size="9.00">modules</text>
</g>
<g id="clust18" class="cluster">
<title>cluster_src/utils</title>
<path fill="#ffffff" stroke="black" stroke-width="2" d="M559,-280C559,-280 932,-280 932,-280 938,-280 944,-286 944,-292 944,-292 944,-548 944,-548 944,-554 938,-560 932,-560 932,-560 559,-560 559,-560 553,-560 547,-554 547,-548 547,-548 547,-292 547,-292 547,-286 553,-280 559,-280"/>
<text text-anchor="middle" x="745.5" y="-548.8" font-family="Helvetica,sans-Serif" font-weight="bold" font-size="9.00">utils</text>
</g>
<g id="clust19" class="cluster">
<title>cluster_src/utils/http</title>
<path fill="#ffffff" stroke="black" stroke-width="2" d="M567,-434C567,-434 924,-434 924,-434 930,-434 936,-440 936,-446 936,-446 936,-522 936,-522 936,-528 930,-534 924,-534 924,-534 567,-534 567,-534 561,-534 555,-528 555,-522 555,-522 555,-446 555,-446 555,-440 561,-434 567,-434"/>
<text text-anchor="middle" x="745.5" y="-522.8" font-family="Helvetica,sans-Serif" font-weight="bold" font-size="9.00">http</text>
</g>
<g id="clust20" class="cluster">
<title>cluster_src/utils/http/axios</title>
<path fill="#ffffff" stroke="black" stroke-width="2" d="M661,-442C661,-442 916,-442 916,-442 922,-442 928,-448 928,-454 928,-454 928,-496 928,-496 928,-502 922,-508 916,-508 916,-508 661,-508 661,-508 655,-508 649,-502 649,-496 649,-496 649,-454 649,-454 649,-448 655,-442 661,-442"/>
<text text-anchor="middle" x="788.5" y="-496.8" font-family="Helvetica,sans-Serif" font-weight="bold" font-size="9.00">axios</text>
</g>
<g id="clust17" class="cluster">
<title>cluster_src/styles</title>
<path fill="#ffffff" stroke="black" stroke-width="2" d="M94.5,-438C94.5,-438 147.5,-438 147.5,-438 153.5,-438 159.5,-444 159.5,-450 159.5,-450 159.5,-478 159.5,-478 159.5,-484 153.5,-490 147.5,-490 147.5,-490 94.5,-490 94.5,-490 88.5,-490 82.5,-484 82.5,-478 82.5,-478 82.5,-450 82.5,-450 82.5,-444 88.5,-438 94.5,-438"/>
<text text-anchor="middle" x="121" y="-478.8" font-family="Helvetica,sans-Serif" font-weight="bold" font-size="9.00">styles</text>
</g>
<!-- src/App.vue -->
<g id="node1" class="node">
<title>src/App.vue</title>
<g id="a_node1"><a xlink:href="src/App.vue" xlink:title="App.vue">
<path fill="#41f083" stroke="black" d="M142,-130C142,-130 100,-130 100,-130 97,-130 94,-127 94,-124 94,-124 94,-118 94,-118 94,-115 97,-112 100,-112 100,-112 142,-112 142,-112 145,-112 148,-115 148,-118 148,-118 148,-124 148,-124 148,-127 145,-130 142,-130"/>
<text text-anchor="start" x="104.5" y="-118.8" font-family="Helvetica,sans-Serif" font-size="9.00">App.vue</text>
</a>
</g>
</g>
<!-- src/api/model/userModel.ts -->
<g id="node2" class="node">
<title>src/api/model/userModel.ts</title>
<g id="a_node2"><a xlink:href="src/api/model/userModel.ts" xlink:title="userModel.ts">
<path fill="#ddfeff" stroke="black" d="M619,-602C619,-602 561,-602 561,-602 558,-602 555,-599 555,-596 555,-596 555,-590 555,-590 555,-587 558,-584 561,-584 561,-584 619,-584 619,-584 622,-584 625,-587 625,-590 625,-590 625,-596 625,-596 625,-599 622,-602 619,-602"/>
<text text-anchor="start" x="563" y="-590.8" font-family="Helvetica,sans-Serif" font-size="9.00">userModel.ts</text>
</a>
</g>
</g>
<!-- src/api/user.ts -->
<g id="node3" class="node">
<title>src/api/user.ts</title>
<g id="a_node3"><a xlink:href="src/api/user.ts" xlink:title="user.ts">
<path fill="#ddfeff" stroke="black" d="M510,-598C510,-598 468,-598 468,-598 465,-598 462,-595 462,-592 462,-592 462,-586 462,-586 462,-583 465,-580 468,-580 468,-580 510,-580 510,-580 513,-580 516,-583 516,-586 516,-586 516,-592 516,-592 516,-595 513,-598 510,-598"/>
<text text-anchor="start" x="474.5" y="-586.8" font-family="Helvetica,sans-Serif" font-size="9.00">user.ts</text>
</a>
</g>
</g>
<!-- src/api/user.ts&#45;&gt;src/api/model/userModel.ts -->
<g id="edge1" class="edge">
<title>src/api/user.ts&#45;&gt;src/api/model/userModel.ts</title>
<g id="a_edge1"><a xlink:title="no&#45;circular">
<path fill="none" stroke="orange" d="M516.01,-590.05C526.07,-590.46 537.8,-590.93 548.89,-591.38"/>
<polygon fill="none" stroke="orange" points="548.88,-593.48 554.96,-591.62 549.05,-589.28 548.88,-593.48"/>
</a>
</g>
<text text-anchor="middle" x="557.74" y="-583.65" font-family="Helvetica,sans-Serif" font-size="9.00" fill="orange">no&#45;circular</text>
</g>
<!-- src/utils/http/index.ts -->
<g id="node4" class="node">
<title>src/utils/http/index.ts</title>
<g id="a_node4"><a xlink:href="src/utils/http/index.ts" xlink:title="index.ts">
<path fill="#ddfeff" stroke="black" d="M611,-497C611,-497 569,-497 569,-497 566,-497 563,-494 563,-491 563,-491 563,-485 563,-485 563,-482 566,-479 569,-479 569,-479 611,-479 611,-479 614,-479 617,-482 617,-485 617,-485 617,-491 617,-491 617,-494 614,-497 611,-497"/>
<text text-anchor="start" x="574" y="-485.8" font-family="Helvetica,sans-Serif" font-size="9.00">index.ts</text>
</a>
</g>
</g>
<!-- src/api/user.ts&#45;&gt;src/utils/http/index.ts -->
<g id="edge2" class="edge">
<title>src/api/user.ts&#45;&gt;src/utils/http/index.ts</title>
<g id="a_edge2"><a xlink:title="no&#45;circular">
<path fill="none" stroke="orange" stroke-width="2" d="M512.46,-579.97C521.36,-575.69 531.29,-569.98 539,-563 558.23,-545.61 573.51,-519.32 581.9,-502.93"/>
<polygon fill="orange" stroke="orange" stroke-width="2" points="583.87,-503.68 584.67,-497.38 580.11,-501.81 583.87,-503.68"/>
</a>
</g>
<text text-anchor="middle" x="534.16" y="-536.97" font-family="Helvetica,sans-Serif" font-size="9.00" fill="orange">no&#45;circular</text>
</g>
<!-- src/utils/http/axios/Axios.ts -->
<g id="node30" class="node">
<title>src/utils/http/axios/Axios.ts</title>
<g id="a_node30"><a xlink:href="src/utils/http/axios/Axios.ts" xlink:title="Axios.ts">
<path fill="#ddfeff" stroke="black" d="M705,-468C705,-468 663,-468 663,-468 660,-468 657,-465 657,-462 657,-462 657,-456 657,-456 657,-453 660,-450 663,-450 663,-450 705,-450 705,-450 708,-450 711,-453 711,-456 711,-456 711,-462 711,-462 711,-465 708,-468 705,-468"/>
<text text-anchor="start" x="668" y="-456.8" font-family="Helvetica,sans-Serif" font-size="9.00">Axios.ts</text>
</a>
</g>
</g>
<!-- src/utils/http/index.ts&#45;&gt;src/utils/http/axios/Axios.ts -->
<g id="edge27" class="edge">
<title>src/utils/http/index.ts&#45;&gt;src/utils/http/axios/Axios.ts</title>
<g id="a_edge27"><a xlink:title="no&#45;circular">
<path fill="none" stroke="orange" stroke-width="2" d="M617.11,-481.79C624.85,-479.79 633.31,-477.46 641,-475 641.41,-474.87 646.62,-472.89 653.24,-470.37"/>
<polygon fill="orange" stroke="orange" stroke-width="2" points="654.2,-472.25 659.06,-468.15 652.7,-468.33 654.2,-472.25"/>
</a>
</g>
<text text-anchor="middle" x="619.05" y="-467.78" font-family="Helvetica,sans-Serif" font-size="9.00" fill="orange">no&#45;circular</text>
</g>
<!-- src/utils/http/axios/axiosResponse.ts -->
<g id="node31" class="node">
<title>src/utils/http/axios/axiosResponse.ts</title>
<g id="a_node31"><a xlink:href="src/utils/http/axios/axiosResponse.ts" xlink:title="axiosResponse.ts">
<path fill="#ddfeff" stroke="black" d="M914,-482C914,-482 834,-482 834,-482 831,-482 828,-479 828,-476 828,-476 828,-470 828,-470 828,-467 831,-464 834,-464 834,-464 914,-464 914,-464 917,-464 920,-467 920,-470 920,-470 920,-476 920,-476 920,-479 917,-482 914,-482"/>
<text text-anchor="start" x="836" y="-470.8" font-family="Helvetica,sans-Serif" font-size="9.00">axiosResponse.ts</text>
</a>
</g>
</g>
<!-- src/utils/http/index.ts&#45;&gt;src/utils/http/axios/axiosResponse.ts -->
<g id="edge28" class="edge">
<title>src/utils/http/index.ts&#45;&gt;src/utils/http/axios/axiosResponse.ts</title>
<g id="a_edge28"><a xlink:title="no&#45;circular">
<path fill="none" stroke="orange" d="M617,-490.12C658.89,-493.06 743.82,-497.05 815,-488 822.5,-487.05 830.41,-485.43 837.9,-483.59"/>
<polygon fill="none" stroke="orange" points="838.78,-485.54 844.07,-482.01 837.74,-481.47 838.78,-485.54"/>
</a>
</g>
<text text-anchor="middle" x="708.83" y="-486.25" font-family="Helvetica,sans-Serif" font-size="9.00" fill="orange">no&#45;circular</text>
</g>
<!-- src/utils/http/axios/axiosTransform.ts -->
<g id="node32" class="node">
<title>src/utils/http/axios/axiosTransform.ts</title>
<g id="a_node32"><a xlink:href="src/utils/http/axios/axiosTransform.ts" xlink:title="axiosTransform.ts">
<path fill="#ddfeff" stroke="black" d="M809,-482C809,-482 730,-482 730,-482 727,-482 724,-479 724,-476 724,-476 724,-470 724,-470 724,-467 727,-464 730,-464 730,-464 809,-464 809,-464 812,-464 815,-467 815,-470 815,-470 815,-476 815,-476 815,-479 812,-482 809,-482"/>
<text text-anchor="start" x="732" y="-470.8" font-family="Helvetica,sans-Serif" font-size="9.00">axiosTransform.ts</text>
</a>
</g>
</g>
<!-- src/utils/http/index.ts&#45;&gt;src/utils/http/axios/axiosTransform.ts -->
<g id="edge29" class="edge">
<title>src/utils/http/index.ts&#45;&gt;src/utils/http/axios/axiosTransform.ts</title>
<g id="a_edge29"><a xlink:title="no&#45;circular">
<path fill="none" stroke="orange" d="M617.19,-485.79C643.61,-483.55 685.07,-480.05 717.92,-477.27"/>
<polygon fill="none" stroke="orange" points="718.15,-479.36 723.95,-476.76 717.79,-475.18 718.15,-479.36"/>
</a>
</g>
<text text-anchor="middle" x="692.58" y="-474.07" font-family="Helvetica,sans-Serif" font-size="9.00" fill="orange">no&#45;circular</text>
</g>
<!-- src/components/HeadingLabel.tsx -->
<g id="node5" class="node">
<title>src/components/HeadingLabel.tsx</title>
<g id="a_node5"><a xlink:href="src/components/HeadingLabel.tsx" xlink:title="HeadingLabel.tsx">
<path fill="#bbfeff" stroke="black" d="M436,-376C436,-376 359,-376 359,-376 356,-376 353,-373 353,-370 353,-370 353,-364 353,-364 353,-361 356,-358 359,-358 359,-358 436,-358 436,-358 439,-358 442,-361 442,-364 442,-364 442,-370 442,-370 442,-373 439,-376 436,-376"/>
<text text-anchor="start" x="361" y="-364.8" font-family="Helvetica,sans-Serif" font-size="9.00">HeadingLabel.tsx</text>
</a>
</g>
</g>
<!-- src/components/SvgIcon.vue -->
<g id="node6" class="node">
<title>src/components/SvgIcon.vue</title>
<g id="a_node6"><a xlink:href="src/components/SvgIcon.vue" xlink:title="SvgIcon.vue">
<path fill="#ccffcc" stroke="black" d="M424,-346C424,-346 371,-346 371,-346 368,-346 365,-343 365,-340 365,-340 365,-334 365,-334 365,-331 368,-328 371,-328 371,-328 424,-328 424,-328 427,-328 430,-331 430,-334 430,-334 430,-340 430,-340 430,-343 427,-346 424,-346"/>
<text text-anchor="start" x="373" y="-334.8" font-family="Helvetica,sans-Serif" font-size="9.00">SvgIcon.vue</text>
</a>
</g>
</g>
<!-- src/components/TodoList/index.vue -->
<g id="node7" class="node">
<title>src/components/TodoList/index.vue</title>
<g id="a_node7"><a xlink:href="src/components/TodoList/index.vue" xlink:title="index.vue">
<path fill="#41f083" stroke="black" d="M419,-410C419,-410 376,-410 376,-410 373,-410 370,-407 370,-404 370,-404 370,-398 370,-398 370,-395 373,-392 376,-392 376,-392 419,-392 419,-392 422,-392 425,-395 425,-398 425,-398 425,-404 425,-404 425,-407 422,-410 419,-410"/>
<text text-anchor="start" x="378" y="-398.8" font-family="Helvetica,sans-Serif" font-size="9.00">index.vue</text>
</a>
</g>
</g>
<!-- src/components/TodoList/useTodos.ts -->
<g id="node8" class="node">
<title>src/components/TodoList/useTodos.ts</title>
<g id="a_node8"><a xlink:href="src/components/TodoList/useTodos.ts" xlink:title="useTodos.ts">
<path fill="#ddfeff" stroke="black" d="M517,-410C517,-410 461,-410 461,-410 458,-410 455,-407 455,-404 455,-404 455,-398 455,-398 455,-395 458,-392 461,-392 461,-392 517,-392 517,-392 520,-392 523,-395 523,-398 523,-398 523,-404 523,-404 523,-407 520,-410 517,-410"/>
<text text-anchor="start" x="463" y="-398.8" font-family="Helvetica,sans-Serif" font-size="9.00">useTodos.ts</text>
</a>
</g>
</g>
<!-- src/components/TodoList/index.vue&#45;&gt;src/components/TodoList/useTodos.ts -->
<g id="edge3" class="edge">
<title>src/components/TodoList/index.vue&#45;&gt;src/components/TodoList/useTodos.ts</title>
<g id="a_edge3"><a xlink:title="no&#45;circular">
<path fill="none" stroke="orange" stroke-width="2" d="M425.35,-401C432.59,-401 440.58,-401 448.36,-401"/>
<polygon fill="orange" stroke="orange" stroke-width="2" points="448.83,-403.1 454.83,-401 448.83,-398.9 448.83,-403.1"/>
</a>
</g>
<text text-anchor="middle" x="418.3" y="-393.8" font-family="Helvetica,sans-Serif" font-size="9.00" fill="orange">no&#45;circular</text>
</g>
<!-- src/utils/storage.ts -->
<g id="node9" class="node">
<title>src/utils/storage.ts</title>
<g id="a_node9"><a xlink:href="src/utils/storage.ts" xlink:title="storage.ts">
<path fill="#ddfeff" stroke="black" d="M613,-366C613,-366 567,-366 567,-366 564,-366 561,-363 561,-360 561,-360 561,-354 561,-354 561,-351 564,-348 567,-348 567,-348 613,-348 613,-348 616,-348 619,-351 619,-354 619,-354 619,-360 619,-360 619,-363 616,-366 613,-366"/>
<text text-anchor="start" x="569" y="-354.8" font-family="Helvetica,sans-Serif" font-size="9.00">storage.ts</text>
</a>
</g>
</g>
<!-- src/components/TodoList/useTodos.ts&#45;&gt;src/utils/storage.ts -->
<g id="edge4" class="edge">
<title>src/components/TodoList/useTodos.ts&#45;&gt;src/utils/storage.ts</title>
<g id="a_edge4"><a xlink:title="no&#45;circular">
<path fill="none" stroke="orange" stroke-width="2" d="M506.69,-391.8C517.91,-385.79 533.13,-377.98 547,-372 550.02,-370.7 553.2,-369.41 556.39,-368.18"/>
<polygon fill="orange" stroke="orange" stroke-width="2" points="557.26,-370.1 562.14,-366.02 555.78,-366.17 557.26,-370.1"/>
</a>
</g>
<text text-anchor="middle" x="512.1" y="-370.67" font-family="Helvetica,sans-Serif" font-size="9.00" fill="orange">no&#45;circular</text>
</g>
<!-- src/components/button/Button.vue -->
<g id="node10" class="node">
<title>src/components/button/Button.vue</title>
<g id="a_node10"><a xlink:href="src/components/button/Button.vue" xlink:title="Button.vue">
<path fill="#41f083" stroke="black" d="M421,-470C421,-470 374,-470 374,-470 371,-470 368,-467 368,-464 368,-464 368,-458 368,-458 368,-455 371,-452 374,-452 374,-452 421,-452 421,-452 424,-452 427,-455 427,-458 427,-458 427,-464 427,-464 427,-467 424,-470 421,-470"/>
<text text-anchor="start" x="376" y="-458.8" font-family="Helvetica,sans-Serif" font-size="9.00">Button.vue</text>
</a>
</g>
</g>
<!-- src/utils/index.ts -->
<g id="node11" class="node">
<title>src/utils/index.ts</title>
<g id="a_node11"><a xlink:href="src/utils/index.ts" xlink:title="index.ts">
<path fill="#ddfeff" stroke="black" d="M611,-396C611,-396 569,-396 569,-396 566,-396 563,-393 563,-390 563,-390 563,-384 563,-384 563,-381 566,-378 569,-378 569,-378 611,-378 611,-378 614,-378 617,-381 617,-384 617,-384 617,-390 617,-390 617,-393 614,-396 611,-396"/>
<text text-anchor="start" x="574" y="-384.8" font-family="Helvetica,sans-Serif" font-size="9.00">index.ts</text>
</a>
</g>
</g>
<!-- src/components/button/Button.vue&#45;&gt;src/utils/index.ts -->
<g id="edge5" class="edge">
<title>src/components/button/Button.vue&#45;&gt;src/utils/index.ts</title>
<g id="a_edge5"><a xlink:title="no&#45;circular">
<path fill="none" stroke="orange" stroke-width="2" d="M427.05,-465.16C458.67,-468.04 509.11,-467.22 539,-439 551.23,-427.45 535.9,-414.64 547,-402 549.88,-398.72 553.53,-396.16 557.47,-394.15"/>
<polygon fill="orange" stroke="orange" stroke-width="2" points="558.31,-396.08 562.97,-391.76 556.63,-392.23 558.31,-396.08"/>
</a>
</g>
<text text-anchor="middle" x="483.24" y="-451.26" font-family="Helvetica,sans-Serif" font-size="9.00" fill="orange">no&#45;circular</text>
</g>
<!-- src/env.d.ts -->
<g id="node12" class="node">
<title>src/env.d.ts</title>
<g id="a_node12"><a xlink:href="src/env.d.ts" xlink:title="env.d.ts">
<path fill="#ccffcc" stroke="black" d="M64,-470C64,-470 22,-470 22,-470 19,-470 16,-467 16,-464 16,-464 16,-458 16,-458 16,-455 19,-452 22,-452 22,-452 64,-452 64,-452 67,-452 70,-455 70,-458 70,-458 70,-464 70,-464 70,-467 67,-470 64,-470"/>
<text text-anchor="start" x="27" y="-458.8" font-family="Helvetica,sans-Serif" font-size="9.00">env.d.ts</text>
</a>
</g>
</g>
<!-- src/layout/basic/Header.vue -->
<g id="node13" class="node">
<title>src/layout/basic/Header.vue</title>
<g id="a_node13"><a xlink:href="src/layout/basic/Header.vue" xlink:title="Header.vue">
<path fill="#41f083" stroke="black" d="M423.5,-50C423.5,-50 371.5,-50 371.5,-50 368.5,-50 365.5,-47 365.5,-44 365.5,-44 365.5,-38 365.5,-38 365.5,-35 368.5,-32 371.5,-32 371.5,-32 423.5,-32 423.5,-32 426.5,-32 429.5,-35 429.5,-38 429.5,-38 429.5,-44 429.5,-44 429.5,-47 426.5,-50 423.5,-50"/>
<text text-anchor="start" x="373.5" y="-38.8" font-family="Helvetica,sans-Serif" font-size="9.00">Header.vue</text>
</a>
</g>
</g>
<!-- src/layout/basic/index.vue -->
<g id="node14" class="node">
<title>src/layout/basic/index.vue</title>
<g id="a_node14"><a xlink:href="src/layout/basic/index.vue" xlink:title="index.vue">
<path fill="#41f083" stroke="black" d="M323,-50C323,-50 280,-50 280,-50 277,-50 274,-47 274,-44 274,-44 274,-38 274,-38 274,-35 277,-32 280,-32 280,-32 323,-32 323,-32 326,-32 329,-35 329,-38 329,-38 329,-44 329,-44 329,-47 326,-50 323,-50"/>
<text text-anchor="start" x="282" y="-38.8" font-family="Helvetica,sans-Serif" font-size="9.00">index.vue</text>
</a>
</g>
</g>
<!-- src/layout/basic/index.vue&#45;&gt;src/layout/basic/Header.vue -->
<g id="edge6" class="edge">
<title>src/layout/basic/index.vue&#45;&gt;src/layout/basic/Header.vue</title>
<g id="a_edge6"><a xlink:title="no&#45;circular">
<path fill="none" stroke="orange" stroke-width="2" d="M329.19,-41C338.53,-41 349.21,-41 359.27,-41"/>
<polygon fill="orange" stroke="orange" stroke-width="2" points="359.43,-43.1 365.43,-41 359.43,-38.9 359.43,-43.1"/>
</a>
</g>
<text text-anchor="middle" x="325.31" y="-33.8" font-family="Helvetica,sans-Serif" font-size="9.00" fill="orange">no&#45;circular</text>
</g>
<!-- src/main.ts -->
<g id="node15" class="node">
<title>src/main.ts</title>
<g id="a_node15"><a xlink:href="src/main.ts" xlink:title="main.ts">
<path fill="#ddfeff" stroke="black" d="M64,-228C64,-228 22,-228 22,-228 19,-228 16,-225 16,-222 16,-222 16,-216 16,-216 16,-213 19,-210 22,-210 22,-210 64,-210 64,-210 67,-210 70,-213 70,-216 70,-216 70,-222 70,-222 70,-225 67,-228 64,-228"/>
<text text-anchor="start" x="27.5" y="-216.8" font-family="Helvetica,sans-Serif" font-size="9.00">main.ts</text>
</a>
</g>
</g>
<!-- src/main.ts&#45;&gt;src/App.vue -->
<g id="edge7" class="edge">
<title>src/main.ts&#45;&gt;src/App.vue</title>
<g id="a_edge7"><a xlink:title="no&#45;circular">
<path fill="none" stroke="orange" stroke-width="2" d="M45.18,-209.75C47.87,-192.59 55.98,-155.68 78,-135 80.87,-132.31 84.27,-130.13 87.87,-128.37"/>
<polygon fill="orange" stroke="orange" stroke-width="2" points="88.94,-130.2 93.66,-125.94 87.31,-126.33 88.94,-130.2"/>
</a>
</g>
<text text-anchor="middle" x="36.8" y="-155.69" font-family="Helvetica,sans-Serif" font-size="9.00" fill="orange">no&#45;circular</text>
</g>
<!-- src/router/index.ts -->
<g id="node16" class="node">
<title>src/router/index.ts</title>
<g id="a_node16"><a xlink:href="src/router/index.ts" xlink:title="index.ts">
<path fill="#ddfeff" stroke="black" d="M142,-194C142,-194 100,-194 100,-194 97,-194 94,-191 94,-188 94,-188 94,-182 94,-182 94,-179 97,-176 100,-176 100,-176 142,-176 142,-176 145,-176 148,-179 148,-182 148,-182 148,-188 148,-188 148,-191 145,-194 142,-194"/>
<text text-anchor="start" x="105" y="-182.8" font-family="Helvetica,sans-Serif" font-size="9.00">index.ts</text>
</a>
</g>
</g>
<!-- src/main.ts&#45;&gt;src/router/index.ts -->
<g id="edge8" class="edge">
<title>src/main.ts&#45;&gt;src/router/index.ts</title>
<g id="a_edge8"><a xlink:title="no&#45;circular">
<path fill="none" stroke="orange" stroke-width="2" d="M57.87,-209.95C63.9,-206.25 71.14,-202.12 78,-199 81.23,-197.53 84.66,-196.14 88.11,-194.84"/>
<polygon fill="orange" stroke="orange" stroke-width="2" points="88.97,-196.76 93.91,-192.75 87.55,-192.81 88.97,-196.76"/>
</a>
</g>
<text text-anchor="middle" x="56.08" y="-191.77" font-family="Helvetica,sans-Serif" font-size="9.00" fill="orange">no&#45;circular</text>
</g>
<!-- src/router/guard/index.ts -->
<g id="node17" class="node">
<title>src/router/guard/index.ts</title>
<g id="a_node17"><a xlink:href="src/router/guard/index.ts" xlink:title="index.ts">
<path fill="#ddfeff" stroke="black" d="M142,-228C142,-228 100,-228 100,-228 97,-228 94,-225 94,-222 94,-222 94,-216 94,-216 94,-213 97,-210 100,-210 100,-210 142,-210 142,-210 145,-210 148,-213 148,-216 148,-216 148,-222 148,-222 148,-225 145,-228 142,-228"/>
<text text-anchor="start" x="105" y="-216.8" font-family="Helvetica,sans-Serif" font-size="9.00">index.ts</text>
</a>
</g>
</g>
<!-- src/main.ts&#45;&gt;src/router/guard/index.ts -->
<g id="edge9" class="edge">
<title>src/main.ts&#45;&gt;src/router/guard/index.ts</title>
<g id="a_edge9"><a xlink:title="no&#45;circular">
<path fill="none" stroke="orange" stroke-width="2" d="M70.15,-219C75.77,-219 81.76,-219 87.58,-219"/>
<polygon fill="orange" stroke="orange" stroke-width="2" points="87.8,-221.1 93.8,-219 87.8,-216.9 87.8,-221.1"/>
</a>
</g>
<text text-anchor="middle" x="60.09" y="-211.8" font-family="Helvetica,sans-Serif" font-size="9.00" fill="orange">no&#45;circular</text>
</g>
<!-- src/store/index.ts -->
<g id="node18" class="node">
<title>src/store/index.ts</title>
<g id="a_node18"><a xlink:href="src/store/index.ts" xlink:title="index.ts">
<path fill="#ddfeff" stroke="black" d="M142,-314C142,-314 100,-314 100,-314 97,-314 94,-311 94,-308 94,-308 94,-302 94,-302 94,-299 97,-296 100,-296 100,-296 142,-296 142,-296 145,-296 148,-299 148,-302 148,-302 148,-308 148,-308 148,-311 145,-314 142,-314"/>
<text text-anchor="start" x="105" y="-302.8" font-family="Helvetica,sans-Serif" font-size="9.00">index.ts</text>
</a>
</g>
</g>
<!-- src/main.ts&#45;&gt;src/store/index.ts -->
<g id="edge10" class="edge">
<title>src/main.ts&#45;&gt;src/store/index.ts</title>
<g id="a_edge10"><a xlink:title="no&#45;circular">
<path fill="none" stroke="orange" stroke-width="2" d="M52.13,-228.2C65.5,-243.33 92.2,-273.54 107.83,-291.23"/>
<polygon fill="orange" stroke="orange" stroke-width="2" points="106.38,-292.76 111.93,-295.86 109.53,-289.98 106.38,-292.76"/>
</a>
</g>
<text text-anchor="middle" x="60.04" y="-254.84" font-family="Helvetica,sans-Serif" font-size="9.00" fill="orange">no&#45;circular</text>
</g>
<!-- src/styles/index.scss -->
<g id="node19" class="node">
<title>src/styles/index.scss</title>
<g id="a_node19"><a xlink:href="src/styles/index.scss" xlink:title="index.scss">
<path fill="#ffffcc" stroke="black" d="M145.5,-464C145.5,-464 96.5,-464 96.5,-464 93.5,-464 90.5,-461 90.5,-458 90.5,-458 90.5,-452 90.5,-452 90.5,-449 93.5,-446 96.5,-446 96.5,-446 145.5,-446 145.5,-446 148.5,-446 151.5,-449 151.5,-452 151.5,-452 151.5,-458 151.5,-458 151.5,-461 148.5,-464 145.5,-464"/>
<text text-anchor="start" x="98.5" y="-452.8" font-family="Helvetica,sans-Serif" font-size="9.00">index.scss</text>
</a>
</g>
</g>
<!-- src/main.ts&#45;&gt;src/styles/index.scss -->
<g id="edge11" class="edge">
<title>src/main.ts&#45;&gt;src/styles/index.scss</title>
<g id="a_edge11"><a xlink:title="no&#45;circular">
<path fill="none" stroke="orange" stroke-width="2" d="M43.96,-228.14C44.19,-256.29 47.49,-343.65 78,-407 84.38,-420.25 95.45,-432.68 104.62,-441.56"/>
<polygon fill="orange" stroke="orange" stroke-width="2" points="103.4,-443.3 109.21,-445.87 106.28,-440.23 103.4,-443.3"/>
</a>
</g>
<text text-anchor="middle" x="34.26" y="-334.27" font-family="Helvetica,sans-Serif" font-size="9.00" fill="orange">no&#45;circular</text>
</g>
<!-- src/router/routers/index.ts -->
<g id="node26" class="node">
<title>src/router/routers/index.ts</title>
<g id="a_node26"><a xlink:href="src/router/routers/index.ts" xlink:title="index.ts">
<path fill="#ddfeff" stroke="black" d="M228,-183C228,-183 186,-183 186,-183 183,-183 180,-180 180,-177 180,-177 180,-171 180,-171 180,-168 183,-165 186,-165 186,-165 228,-165 228,-165 231,-165 234,-168 234,-171 234,-171 234,-177 234,-177 234,-180 231,-183 228,-183"/>
<text text-anchor="start" x="191" y="-171.8" font-family="Helvetica,sans-Serif" font-size="9.00">index.ts</text>
</a>
</g>
</g>
<!-- src/router/index.ts&#45;&gt;src/router/routers/index.ts -->
<g id="edge18" class="edge">
<title>src/router/index.ts&#45;&gt;src/router/routers/index.ts</title>
<g id="a_edge18"><a xlink:title="no&#45;circular">
<path fill="none" stroke="orange" stroke-width="2" d="M148.12,-181.58C156.18,-180.52 165.15,-179.35 173.58,-178.25"/>
<polygon fill="orange" stroke="orange" stroke-width="2" points="174.22,-180.28 179.9,-177.42 173.68,-176.11 174.22,-180.28"/>
</a>
</g>
<text text-anchor="middle" x="141.95" y="-172.31" font-family="Helvetica,sans-Serif" font-size="9.00" fill="orange">no&#45;circular</text>
</g>
<!-- src/utils/auth.ts -->
<g id="node25" class="node">
<title>src/utils/auth.ts</title>
<g id="a_node25"><a xlink:href="src/utils/auth.ts" xlink:title="auth.ts">
<path fill="#ddfeff" stroke="black" d="M611,-426C611,-426 569,-426 569,-426 566,-426 563,-423 563,-420 563,-420 563,-414 563,-414 563,-411 566,-408 569,-408 569,-408 611,-408 611,-408 614,-408 617,-411 617,-414 617,-414 617,-420 617,-420 617,-423 614,-426 611,-426"/>
<text text-anchor="start" x="576" y="-414.8" font-family="Helvetica,sans-Serif" font-size="9.00">auth.ts</text>
</a>
</g>
</g>
<!-- src/router/guard/index.ts&#45;&gt;src/utils/auth.ts -->
<g id="edge17" class="edge">
<title>src/router/guard/index.ts&#45;&gt;src/utils/auth.ts</title>
<g id="a_edge17"><a xlink:title="no&#45;circular">
<path fill="none" stroke="orange" stroke-width="2" d="M128.3,-228.21C136.8,-240.8 152.24,-264.19 164,-285 230.95,-403.44 164.45,-559 300.5,-559 300.5,-559 300.5,-559 398.5,-559 429.9,-559 517.2,-566.6 539,-544 556.48,-525.88 531.57,-450.89 547,-431 549.72,-427.49 553.35,-424.86 557.34,-422.87"/>
<polygon fill="orange" stroke="orange" stroke-width="2" points="558.21,-424.79 562.96,-420.56 556.61,-420.91 558.21,-424.79"/>
</a>
</g>
<text text-anchor="middle" x="212.62" y="-350.75" font-family="Helvetica,sans-Serif" font-size="9.00" fill="orange">no&#45;circular</text>
</g>
<!-- src/pages/About.vue -->
<g id="node20" class="node">
<title>src/pages/About.vue</title>
<g id="a_node20"><a xlink:href="src/pages/About.vue" xlink:title="About.vue">
<path fill="#41f083" stroke="black" d="M323.5,-136C323.5,-136 279.5,-136 279.5,-136 276.5,-136 273.5,-133 273.5,-130 273.5,-130 273.5,-124 273.5,-124 273.5,-121 276.5,-118 279.5,-118 279.5,-118 323.5,-118 323.5,-118 326.5,-118 329.5,-121 329.5,-124 329.5,-124 329.5,-130 329.5,-130 329.5,-133 326.5,-136 323.5,-136"/>
<text text-anchor="start" x="281.5" y="-124.8" font-family="Helvetica,sans-Serif" font-size="9.00">About.vue</text>
</a>
</g>
</g>
<!-- src/pages/About.vue&#45;&gt;src/components/HeadingLabel.tsx -->
<g id="edge13" class="edge">
<title>src/pages/About.vue&#45;&gt;src/components/HeadingLabel.tsx</title>
<g id="a_edge13"><a xlink:title="no&#45;circular">
<path fill="none" stroke="orange" stroke-width="2" d="M329.66,-135.05C332.52,-136.91 335.08,-139.2 337,-142 350.17,-161.28 330.63,-333.59 345,-352 345.82,-353.05 346.7,-354.02 347.65,-354.93"/>
<polygon fill="orange" stroke="orange" stroke-width="2" points="346.78,-356.92 352.8,-358.96 349.37,-353.61 346.78,-356.92"/>
</a>
</g>
<text text-anchor="middle" x="362.54" y="-240.41" font-family="Helvetica,sans-Serif" font-size="9.00" fill="orange">no&#45;circular</text>
</g>
<!-- src/pages/About.vue&#45;&gt;src/utils/index.ts -->
<g id="edge14" class="edge">
<title>src/pages/About.vue&#45;&gt;src/utils/index.ts</title>
<g id="a_edge14"><a xlink:title="no&#45;circular">
<path fill="none" stroke="orange" stroke-width="2" d="M329.7,-135.02C332.56,-136.89 335.11,-139.18 337,-142 348.06,-158.47 330.82,-485.13 345,-499 408.14,-560.74 486.02,-526.66 539,-456 553.56,-436.59 531.6,-420.75 547,-402 549.71,-398.7 553.19,-396.13 557,-394.12"/>
<polygon fill="orange" stroke="orange" stroke-width="2" points="558.12,-395.92 562.75,-391.57 556.41,-392.09 558.12,-395.92"/>
</a>
</g>
<text text-anchor="middle" x="362.62" y="-254.66" font-family="Helvetica,sans-Serif" font-size="9.00" fill="orange">no&#45;circular</text>
</g>
<!-- src/pages/Xlsx.vue -->
<g id="node21" class="node">
<title>src/pages/Xlsx.vue</title>
<g id="a_node21"><a xlink:href="src/pages/Xlsx.vue" xlink:title="Xlsx.vue">
<path fill="#41f083" stroke="black" d="M418.5,-136C418.5,-136 376.5,-136 376.5,-136 373.5,-136 370.5,-133 370.5,-130 370.5,-130 370.5,-124 370.5,-124 370.5,-121 373.5,-118 376.5,-118 376.5,-118 418.5,-118 418.5,-118 421.5,-118 424.5,-121 424.5,-124 424.5,-124 424.5,-130 424.5,-130 424.5,-133 421.5,-136 418.5,-136"/>
<text text-anchor="start" x="380.5" y="-124.8" font-family="Helvetica,sans-Serif" font-size="9.00">Xlsx.vue</text>
</a>
</g>
</g>
<!-- src/pages/About.vue&#45;&gt;src/pages/Xlsx.vue -->
<g id="edge12" class="edge">
<title>src/pages/About.vue&#45;&gt;src/pages/Xlsx.vue</title>
<g id="a_edge12"><a xlink:title="no&#45;circular">
<path fill="none" stroke="orange" stroke-width="2" d="M329.69,-127C340.49,-127 352.99,-127 364.24,-127"/>
<polygon fill="orange" stroke="orange" stroke-width="2" points="364.34,-129.1 370.34,-127 364.34,-124.9 364.34,-129.1"/>
</a>
</g>
<text text-anchor="middle" x="328.11" y="-119.8" font-family="Helvetica,sans-Serif" font-size="9.00" fill="orange">no&#45;circular</text>
</g>
<!-- src/pages/NotFound/404.vue -->
<g id="node22" class="node">
<title>src/pages/NotFound/404.vue</title>
<g id="a_node22"><a xlink:href="src/pages/NotFound/404.vue" xlink:title="404.vue">
<path fill="#41f083" stroke="black" d="M322.5,-260C322.5,-260 280.5,-260 280.5,-260 277.5,-260 274.5,-257 274.5,-254 274.5,-254 274.5,-248 274.5,-248 274.5,-245 277.5,-242 280.5,-242 280.5,-242 322.5,-242 322.5,-242 325.5,-242 328.5,-245 328.5,-248 328.5,-248 328.5,-254 328.5,-254 328.5,-257 325.5,-260 322.5,-260"/>
<text text-anchor="start" x="285" y="-248.8" font-family="Helvetica,sans-Serif" font-size="9.00">404.vue</text>
</a>
</g>
</g>
<!-- src/pages/home.vue -->
<g id="node23" class="node">
<title>src/pages/home.vue</title>
<g id="a_node23"><a xlink:href="src/pages/home.vue" xlink:title="home.vue">
<path fill="#41f083" stroke="black" d="M324,-166C324,-166 279,-166 279,-166 276,-166 273,-163 273,-160 273,-160 273,-154 273,-154 273,-151 276,-148 279,-148 279,-148 324,-148 324,-148 327,-148 330,-151 330,-154 330,-154 330,-160 330,-160 330,-163 327,-166 324,-166"/>
<text text-anchor="start" x="281" y="-154.8" font-family="Helvetica,sans-Serif" font-size="9.00">home.vue</text>
</a>
</g>
</g>
<!-- src/pages/home.vue&#45;&gt;src/components/TodoList/index.vue -->
<g id="edge15" class="edge">
<title>src/pages/home.vue&#45;&gt;src/components/TodoList/index.vue</title>
<g id="a_edge15"><a xlink:title="no&#45;circular">
<path fill="none" stroke="orange" stroke-width="2" d="M330.29,-164.68C332.89,-166.38 335.22,-168.46 337,-171 350.84,-190.76 329.83,-369.24 345,-388 349.71,-393.82 356.62,-397.26 363.86,-399.24"/>
<polygon fill="orange" stroke="orange" stroke-width="2" points="363.66,-401.35 369.97,-400.58 364.56,-397.24 363.66,-401.35"/>
</a>
</g>
<text text-anchor="middle" x="362.42" y="-275.28" font-family="Helvetica,sans-Serif" font-size="9.00" fill="orange">no&#45;circular</text>
</g>
<!-- src/pages/login/index.vue -->
<g id="node24" class="node">
<title>src/pages/login/index.vue</title>
<g id="a_node24"><a xlink:href="src/pages/login/index.vue" xlink:title="index.vue">
<path fill="#41f083" stroke="black" d="M323,-200C323,-200 280,-200 280,-200 277,-200 274,-197 274,-194 274,-194 274,-188 274,-188 274,-185 277,-182 280,-182 280,-182 323,-182 323,-182 326,-182 329,-185 329,-188 329,-188 329,-194 329,-194 329,-197 326,-200 323,-200"/>
<text text-anchor="start" x="282" y="-188.8" font-family="Helvetica,sans-Serif" font-size="9.00">index.vue</text>
</a>
</g>
</g>
<!-- src/pages/login/index.vue&#45;&gt;src/utils/auth.ts -->
<g id="edge16" class="edge">
<title>src/pages/login/index.vue&#45;&gt;src/utils/auth.ts</title>
<g id="a_edge16"><a xlink:title="no&#45;circular">
<path fill="none" stroke="orange" stroke-width="2" d="M313.8,-200.2C321.92,-207.57 332.24,-218.68 337,-231 343.09,-246.76 332.9,-523.21 345,-535 360.44,-550.04 523.18,-549.65 539,-535 556.01,-519.25 532.74,-449.27 547,-431 549.73,-427.5 553.37,-424.87 557.36,-422.89"/>
<polygon fill="orange" stroke="orange" stroke-width="2" points="558.23,-424.8 562.98,-420.58 556.63,-420.92 558.23,-424.8"/>
</a>
</g>
<text text-anchor="middle" x="317.11" y="-312.68" font-family="Helvetica,sans-Serif" font-size="9.00" fill="orange">no&#45;circular</text>
</g>
<!-- src/router/routers/index.ts&#45;&gt;src/layout/basic/index.vue -->
<g id="edge21" class="edge">
<title>src/router/routers/index.ts&#45;&gt;src/layout/basic/index.vue</title>
<g id="a_edge21"><a xlink:title="no&#45;circular">
<path fill="none" stroke="orange" stroke-width="2" d="M214.36,-164.86C230.2,-142.08 271.53,-82.66 290.59,-55.24"/>
<polygon fill="orange" stroke="orange" stroke-width="2" points="292.4,-56.33 294.1,-50.21 288.95,-53.93 292.4,-56.33"/>
</a>
</g>
<text text-anchor="middle" x="232.37" y="-100.13" font-family="Helvetica,sans-Serif" font-size="9.00" fill="orange">no&#45;circular</text>
</g>
<!-- src/router/routers/index.ts&#45;&gt;src/pages/About.vue -->
<g id="edge22" class="edge">
<title>src/router/routers/index.ts&#45;&gt;src/pages/About.vue</title>
<g id="a_edge22"><a xlink:title="no&#45;circular">
<path fill="none" stroke="orange" stroke-width="2" stroke-dasharray="5,2" d="M220.68,-164.72C230.51,-157.82 244.66,-148.51 258,-142 260.99,-140.54 264.16,-139.15 267.36,-137.85"/>
<polygon fill="orange" stroke="orange" stroke-width="2" points="268.3,-139.74 273.14,-135.61 266.78,-135.82 268.3,-139.74"/>
</a>
</g>
<text text-anchor="middle" x="224.04" y="-141.2" font-family="Helvetica,sans-Serif" font-size="9.00" fill="orange">no&#45;circular</text>
</g>
<!-- src/router/routers/index.ts&#45;&gt;src/pages/NotFound/404.vue -->
<g id="edge20" class="edge">
<title>src/router/routers/index.ts&#45;&gt;src/pages/NotFound/404.vue</title>
<g id="a_edge20"><a xlink:title="no&#45;circular">
<path fill="none" stroke="orange" stroke-width="2" stroke-dasharray="5,2" d="M214.62,-183.1C223.5,-194.83 240.2,-215.32 258,-229 262.84,-232.72 268.41,-236.12 273.88,-239.07"/>
<polygon fill="orange" stroke="orange" stroke-width="2" points="273,-240.98 279.29,-241.87 274.93,-237.25 273,-240.98"/>
</a>
</g>
<text text-anchor="middle" x="221.39" y="-208.99" font-family="Helvetica,sans-Serif" font-size="9.00" fill="orange">no&#45;circular</text>
</g>
<!-- src/router/routers/index.ts&#45;&gt;src/pages/home.vue -->
<g id="edge23" class="edge">
<title>src/router/routers/index.ts&#45;&gt;src/pages/home.vue</title>
<g id="a_edge23"><a xlink:title="no&#45;circular">
<path fill="none" stroke="orange" stroke-width="2" stroke-dasharray="5,2" d="M234.26,-169.17C244.35,-167.32 256.01,-165.18 266.71,-163.21"/>
<polygon fill="orange" stroke="orange" stroke-width="2" points="267.36,-165.23 272.88,-162.08 266.6,-161.09 267.36,-165.23"/>
</a>
</g>
<text text-anchor="middle" x="231.37" y="-158.46" font-family="Helvetica,sans-Serif" font-size="9.00" fill="orange">no&#45;circular</text>
</g>
<!-- src/router/routers/index.ts&#45;&gt;src/pages/login/index.vue -->
<g id="edge19" class="edge">
<title>src/router/routers/index.ts&#45;&gt;src/pages/login/index.vue</title>
<g id="a_edge19"><a xlink:title="no&#45;circular">
<path fill="none" stroke="orange" stroke-width="2" stroke-dasharray="5,2" d="M234.26,-178.83C244.71,-180.75 256.86,-182.98 267.87,-185"/>
<polygon fill="orange" stroke="orange" stroke-width="2" points="267.57,-187.08 273.85,-186.1 268.33,-182.95 267.57,-187.08"/>
</a>
</g>
<text text-anchor="middle" x="276.08" y="-175.27" font-family="Helvetica,sans-Serif" font-size="9.00" fill="orange">no&#45;circular</text>
</g>
<!-- src/router/types.ts -->
<g id="node27" class="node">
<title>src/router/types.ts</title>
<g id="a_node27"><a xlink:href="src/router/types.ts" xlink:title="no&#45;orphans">
<path fill="#ccffcc" stroke="orange" d="M142,-164C142,-164 100,-164 100,-164 97,-164 94,-161 94,-158 94,-158 94,-152 94,-152 94,-149 97,-146 100,-146 100,-146 142,-146 142,-146 145,-146 148,-149 148,-152 148,-152 148,-158 148,-158 148,-161 145,-164 142,-164"/>
<text text-anchor="start" x="105" y="-152.8" font-family="Helvetica,sans-Serif" font-size="9.00" fill="orange">types.ts</text>
</a>
</g>
</g>
<!-- src/store/modules/app.ts -->
<g id="node28" class="node">
<title>src/store/modules/app.ts</title>
<g id="a_node28"><a xlink:href="src/store/modules/app.ts" xlink:title="no&#45;orphans">
<path fill="#ccffcc" stroke="orange" d="M142,-378C142,-378 100,-378 100,-378 97,-378 94,-375 94,-372 94,-372 94,-366 94,-366 94,-363 97,-360 100,-360 100,-360 142,-360 142,-360 145,-360 148,-363 148,-366 148,-366 148,-372 148,-372 148,-375 145,-378 142,-378"/>
<text text-anchor="start" x="108" y="-366.8" font-family="Helvetica,sans-Serif" font-size="9.00" fill="orange">app.ts</text>
</a>
</g>
</g>
<!-- src/store/modules/user.ts -->
<g id="node29" class="node">
<title>src/store/modules/user.ts</title>
<g id="a_node29"><a xlink:href="src/store/modules/user.ts" xlink:title="no&#45;orphans">
<path fill="#ccffcc" stroke="orange" d="M142,-348C142,-348 100,-348 100,-348 97,-348 94,-345 94,-342 94,-342 94,-336 94,-336 94,-333 97,-330 100,-330 100,-330 142,-330 142,-330 145,-330 148,-333 148,-336 148,-336 148,-342 148,-342 148,-345 145,-348 142,-348"/>
<text text-anchor="start" x="106.5" y="-336.8" font-family="Helvetica,sans-Serif" font-size="9.00" fill="orange">user.ts</text>
</a>
</g>
</g>
<!-- src/utils/http/axios/Axios.ts&#45;&gt;src/utils/http/axios/axiosResponse.ts -->
<g id="edge24" class="edge">
<title>src/utils/http/axios/Axios.ts&#45;&gt;src/utils/http/axios/axiosResponse.ts</title>
<g id="a_edge24"><a xlink:title="no&#45;circular">
<path fill="none" stroke="orange" d="M711.01,-458.24C715.35,-458.14 719.8,-458.05 724,-458 764.44,-457.48 774.88,-452.9 815,-458 822.5,-458.95 830.41,-460.57 837.9,-462.41"/>
<polygon fill="none" stroke="orange" points="837.74,-464.53 844.07,-463.99 838.78,-460.46 837.74,-464.53"/>
</a>
</g>
<text text-anchor="middle" x="755.4" y="-448.44" font-family="Helvetica,sans-Serif" font-size="9.00" fill="orange">no&#45;circular</text>
</g>
<!-- src/utils/http/axios/Axios.ts&#45;&gt;src/utils/http/axios/axiosTransform.ts -->
<g id="edge25" class="edge">
<title>src/utils/http/axios/Axios.ts&#45;&gt;src/utils/http/axios/axiosTransform.ts</title>
<g id="a_edge25"><a xlink:title="no&#45;circular">
<path fill="none" stroke="orange" d="M711.42,-463.43C713.55,-463.79 715.75,-464.16 717.98,-464.53"/>
<polygon fill="none" stroke="orange" points="717.67,-466.61 723.94,-465.53 718.37,-462.47 717.67,-466.61"/>
</a>
</g>
<text text-anchor="middle" x="739.56" y="-457.26" font-family="Helvetica,sans-Serif" font-size="9.00" fill="orange">no&#45;circular</text>
</g>
<!-- src/utils/http/axios/axiosTransform.ts&#45;&gt;src/utils/http/axios/axiosResponse.ts -->
<g id="edge26" class="edge">
<title>src/utils/http/axios/axiosTransform.ts&#45;&gt;src/utils/http/axios/axiosResponse.ts</title>
<g id="a_edge26"><a xlink:title="no&#45;circular">
<path fill="none" stroke="orange" d="M815.16,-473C817.26,-473 819.38,-473 821.5,-473"/>
<polygon fill="none" stroke="orange" points="821.85,-475.1 827.85,-473 821.85,-470.9 821.85,-475.1"/>
</a>
</g>
<text text-anchor="middle" x="799.11" y="-465.8" font-family="Helvetica,sans-Serif" font-size="9.00" fill="orange">no&#45;circular</text>
</g>
<!-- src/utils/mouse.ts -->
<g id="node33" class="node">
<title>src/utils/mouse.ts</title>
<g id="a_node33"><a xlink:href="src/utils/mouse.ts" xlink:title="no&#45;orphans">
<path fill="#ccffcc" stroke="orange" d="M612,-336C612,-336 568,-336 568,-336 565,-336 562,-333 562,-330 562,-330 562,-324 562,-324 562,-321 565,-318 568,-318 568,-318 612,-318 612,-318 615,-318 618,-321 618,-324 618,-324 618,-330 618,-330 618,-333 615,-336 612,-336"/>
<text text-anchor="start" x="570" y="-324.8" font-family="Helvetica,sans-Serif" font-size="9.00" fill="orange">mouse.ts</text>
</a>
</g>
</g>
<!-- src/utils/transform.ts -->
<g id="node34" class="node">
<title>src/utils/transform.ts</title>
<g id="a_node34"><a xlink:href="src/utils/transform.ts" xlink:title="no&#45;orphans">
<path fill="#ccffcc" stroke="orange" d="M617,-306C617,-306 563,-306 563,-306 560,-306 557,-303 557,-300 557,-300 557,-294 557,-294 557,-291 560,-288 563,-288 563,-288 617,-288 617,-288 620,-288 623,-291 623,-294 623,-294 623,-300 623,-300 623,-303 620,-306 617,-306"/>
<text text-anchor="start" x="565" y="-294.8" font-family="Helvetica,sans-Serif" font-size="9.00" fill="orange">transform.ts</text>
</a>
</g>
</g>
</g>
</svg>
