<?xml version="1.0" encoding="UTF-8" standalone="no"?>
<!DOCTYPE svg PUBLIC "-//W3C//DTD SVG 1.1//EN"
 "http://www.w3.org/Graphics/SVG/1.1/DTD/svg11.dtd">
<!-- Generated by graphviz version 6.0.2 (20221011.1828)
 -->
<!-- Title: dependency&#45;cruiser output Pages: 1 -->
<svg width="968pt" height="692pt"
 viewBox="0.00 0.00 968.00 692.00" xmlns="http://www.w3.org/2000/svg" xmlns:xlink="http://www.w3.org/1999/xlink">
<g id="graph0" class="graph" transform="scale(1 1) rotate(0) translate(4 688)">
<title>dependency&#45;cruiser output</title>
<polygon fill="white" stroke="none" points="-4,4 -4,-688 964,-688 964,4 -4,4"/>
<g id="clust1" class="cluster">
<title>cluster_src</title>
<path fill="#ffffff" stroke="black" stroke-width="2" d="M20,-8C20,-8 940,-8 940,-8 946,-8 952,-14 952,-20 952,-20 952,-664 952,-664 952,-670 946,-676 940,-676 940,-676 20,-676 20,-676 14,-676 8,-670 8,-664 8,-664 8,-20 8,-20 8,-14 14,-8 20,-8"/>
<text text-anchor="middle" x="480" y="-664.8" font-family="Helvetica,sans-Serif" font-weight="bold" font-size="9.00">src</text>
</g>
<g id="clust2" class="cluster">
<title>cluster_src/api</title>
<path fill="#ffffff" stroke="black" stroke-width="2" d="M466,-564C466,-564 629,-564 629,-564 635,-564 641,-570 641,-576 641,-576 641,-638 641,-638 641,-644 635,-650 629,-650 629,-650 466,-650 466,-650 460,-650 454,-644 454,-638 454,-638 454,-576 454,-576 454,-570 460,-564 466,-564"/>
<text text-anchor="middle" x="547.5" y="-638.8" font-family="Helvetica,sans-Serif" font-weight="bold" font-size="9.00">api</text>
</g>
<g id="clust3" class="cluster">
<title>cluster_src/api/model</title>
<path fill="#ffffff" stroke="black" stroke-width="2" d="M559,-572C559,-572 621,-572 621,-572 627,-572 633,-578 633,-584 633,-584 633,-612 633,-612 633,-618 627,-624 621,-624 621,-624 559,-624 559,-624 553,-624 547,-618 547,-612 547,-612 547,-584 547,-584 547,-578 553,-572 559,-572"/>
<text text-anchor="middle" x="590" y="-612.8" font-family="Helvetica,sans-Serif" font-weight="bold" font-size="9.00">model</text>
</g>
<g id="clust9" class="cluster">
<title>cluster_src/pages</title>
<path fill="#ffffff" stroke="black" stroke-width="2" d="M270,-110C270,-110 420.5,-110 420.5,-110 426.5,-110 432.5,-116 432.5,-122 432.5,-122 432.5,-300 432.5,-300 432.5,-306 426.5,-312 420.5,-312 420.5,-312 270,-312 270,-312 264,-312 258,-306 258,-300 258,-300 258,-122 258,-122 258,-116 264,-110 270,-110"/>
<text text-anchor="middle" x="345.25" y="-300.8" font-family="Helvetica,sans-Serif" font-weight="bold" font-size="9.00">pages</text>
</g>
<g id="clust10" class="cluster">
<title>cluster_src/pages/NotFound</title>
<path fill="#ffffff" stroke="black" stroke-width="2" d="M278.5,-234C278.5,-234 324.5,-234 324.5,-234 330.5,-234 336.5,-240 336.5,-246 336.5,-246 336.5,-274 336.5,-274 336.5,-280 330.5,-286 324.5,-286 324.5,-286 278.5,-286 278.5,-286 272.5,-286 266.5,-280 266.5,-274 266.5,-274 266.5,-246 266.5,-246 266.5,-240 272.5,-234 278.5,-234"/>
<text text-anchor="middle" x="301.5" y="-274.8" font-family="Helvetica,sans-Serif" font-weight="bold" font-size="9.00">NotFound</text>
</g>
<g id="clust11" class="cluster">
<title>cluster_src/pages/login</title>
<path fill="#ffffff" stroke="black" stroke-width="2" d="M278,-174C278,-174 325,-174 325,-174 331,-174 337,-180 337,-186 337,-186 337,-214 337,-214 337,-220 331,-226 325,-226 325,-226 278,-226 278,-226 272,-226 266,-220 266,-214 266,-214 266,-186 266,-186 266,-180 272,-174 278,-174"/>
<text text-anchor="middle" x="301.5" y="-214.8" font-family="Helvetica,sans-Serif" font-weight="bold" font-size="9.00">login</text>
</g>
<g id="clust4" class="cluster">
<title>cluster_src/components</title>
<path fill="#ffffff" stroke="black" stroke-width="2" d="M357,-320C357,-320 527,-320 527,-320 533,-320 539,-326 539,-332 539,-332 539,-506 539,-506 539,-512 533,-518 527,-518 527,-518 357,-518 357,-518 351,-518 345,-512 345,-506 345,-506 345,-332 345,-332 345,-326 351,-320 357,-320"/>
<text text-anchor="middle" x="442" y="-506.8" font-family="Helvetica,sans-Serif" font-weight="bold" font-size="9.00">components</text>
</g>
<g id="clust5" class="cluster">
<title>cluster_src/components/TodoList</title>
<path fill="#ffffff" stroke="black" stroke-width="2" d="M374,-354C374,-354 519,-354 519,-354 525,-354 531,-360 531,-366 531,-366 531,-394 531,-394 531,-400 525,-406 519,-406 519,-406 374,-406 374,-406 368,-406 362,-400 362,-394 362,-394 362,-366 362,-366 362,-360 368,-354 374,-354"/>
<text text-anchor="middle" x="446.5" y="-394.8" font-family="Helvetica,sans-Serif" font-weight="bold" font-size="9.00">TodoList</text>
</g>
<g id="clust6" class="cluster">
<title>cluster_src/components/button</title>
<path fill="#ffffff" stroke="black" stroke-width="2" d="M372,-440C372,-440 423,-440 423,-440 429,-440 435,-446 435,-452 435,-452 435,-480 435,-480 435,-486 429,-492 423,-492 423,-492 372,-492 372,-492 366,-492 360,-486 360,-480 360,-480 360,-452 360,-452 360,-446 366,-440 372,-440"/>
<text text-anchor="middle" x="397.5" y="-480.8" font-family="Helvetica,sans-Serif" font-weight="bold" font-size="9.00">button</text>
</g>
<g id="clust7" class="cluster">
<title>cluster_src/layout</title>
<path fill="#ffffff" stroke="black" stroke-width="2" d="M270,-16C270,-16 433.5,-16 433.5,-16 439.5,-16 445.5,-22 445.5,-28 445.5,-28 445.5,-90 445.5,-90 445.5,-96 439.5,-102 433.5,-102 433.5,-102 270,-102 270,-102 264,-102 258,-96 258,-90 258,-90 258,-28 258,-28 258,-22 264,-16 270,-16"/>
<text text-anchor="middle" x="351.75" y="-90.8" font-family="Helvetica,sans-Serif" font-weight="bold" font-size="9.00">layout</text>
</g>
<g id="clust8" class="cluster">
<title>cluster_src/layout/basic</title>
<path fill="#ffffff" stroke="black" stroke-width="2" d="M278,-24C278,-24 425.5,-24 425.5,-24 431.5,-24 437.5,-30 437.5,-36 437.5,-36 437.5,-64 437.5,-64 437.5,-70 431.5,-76 425.5,-76 425.5,-76 278,-76 278,-76 272,-76 266,-70 266,-64 266,-64 266,-36 266,-36 266,-30 272,-24 278,-24"/>
<text text-anchor="middle" x="351.75" y="-64.8" font-family="Helvetica,sans-Serif" font-weight="bold" font-size="9.00">basic</text>
</g>
<g id="clust12" class="cluster">
<title>cluster_src/router</title>
<path fill="#ffffff" stroke="black" stroke-width="2" d="M90,-138C90,-138 238,-138 238,-138 244,-138 250,-144 250,-150 250,-150 250,-268 250,-268 250,-274 244,-280 238,-280 238,-280 90,-280 90,-280 84,-280 78,-274 78,-268 78,-268 78,-150 78,-150 78,-144 84,-138 90,-138"/>
<text text-anchor="middle" x="164" y="-268.8" font-family="Helvetica,sans-Serif" font-weight="bold" font-size="9.00">router</text>
</g>
<g id="clust14" class="cluster">
<title>cluster_src/router/routers</title>
<path fill="#ffffff" stroke="black" stroke-width="2" d="M184,-157C184,-157 230,-157 230,-157 236,-157 242,-163 242,-169 242,-169 242,-197 242,-197 242,-203 236,-209 230,-209 230,-209 184,-209 184,-209 178,-209 172,-203 172,-197 172,-197 172,-169 172,-169 172,-163 178,-157 184,-157"/>
<text text-anchor="middle" x="207" y="-197.8" font-family="Helvetica,sans-Serif" font-weight="bold" font-size="9.00">routers</text>
</g>
<g id="clust13" class="cluster">
<title>cluster_src/router/guard</title>
<path fill="#ffffff" stroke="black" stroke-width="2" d="M98,-202C98,-202 144,-202 144,-202 150,-202 156,-208 156,-214 156,-214 156,-242 156,-242 156,-248 150,-254 144,-254 144,-254 98,-254 98,-254 92,-254 86,-248 86,-242 86,-242 86,-214 86,-214 86,-208 92,-202 98,-202"/>
<text text-anchor="middle" x="121" y="-242.8" font-family="Helvetica,sans-Serif" font-weight="bold" font-size="9.00">guard</text>
</g>
<g id="clust15" class="cluster">
<title>cluster_src/store</title>
<path fill="#ffffff" stroke="black" stroke-width="2" d="M90,-288C90,-288 152,-288 152,-288 158,-288 164,-294 164,-300 164,-300 164,-418 164,-418 164,-424 158,-430 152,-430 152,-430 90,-430 90,-430 84,-430 78,-424 78,-418 78,-418 78,-300 78,-300 78,-294 84,-288 90,-288"/>
<text text-anchor="middle" x="121" y="-418.8" font-family="Helvetica,sans-Serif" font-weight="bold" font-size="9.00">store</text>
</g>
<g id="clust16" class="cluster">
<title>cluster_src/store/modules</title>
<path fill="#ffffff" stroke="black" stroke-width="2" d="M98,-322C98,-322 144,-322 144,-322 150,-322 156,-328 156,-334 156,-334 156,-392 156,-392 156,-398 150,-404 144,-404 144,-404 98,-404 98,-404 92,-404 86,-398 86,-392 86,-392 86,-334 86,-334 86,-328 92,-322 98,-322"/>
<text text-anchor="middle" x="121" y="-392.8" font-family="Helvetica,sans-Serif" font-weight="bold" font-size="9.00">modules</text>
</g>
<g id="clust17" class="cluster">
<title>cluster_src/styles</title>
<path fill="#ffffff" stroke="black" stroke-width="2" d="M94.5,-438C94.5,-438 147.5,-438 147.5,-438 153.5,-438 159.5,-444 159.5,-450 159.5,-450 159.5,-478 159.5,-478 159.5,-484 153.5,-490 147.5,-490 147.5,-490 94.5,-490 94.5,-490 88.5,-490 82.5,-484 82.5,-478 82.5,-478 82.5,-450 82.5,-450 82.5,-444 88.5,-438 94.5,-438"/>
<text text-anchor="middle" x="121" y="-478.8" font-family="Helvetica,sans-Serif" font-weight="bold" font-size="9.00">styles</text>
</g>
<g id="clust18" class="cluster">
<title>cluster_src/utils</title>
<path fill="#ffffff" stroke="black" stroke-width="2" d="M559,-276C559,-276 932,-276 932,-276 938,-276 944,-282 944,-288 944,-288 944,-544 944,-544 944,-550 938,-556 932,-556 932,-556 559,-556 559,-556 553,-556 547,-550 547,-544 547,-544 547,-288 547,-288 547,-282 553,-276 559,-276"/>
<text text-anchor="middle" x="745.5" y="-544.8" font-family="Helvetica,sans-Serif" font-weight="bold" font-size="9.00">utils</text>
</g>
<g id="clust19" class="cluster">
<title>cluster_src/utils/http</title>
<path fill="#ffffff" stroke="black" stroke-width="2" d="M567,-430C567,-430 924,-430 924,-430 930,-430 936,-436 936,-442 936,-442 936,-518 936,-518 936,-524 930,-530 924,-530 924,-530 567,-530 567,-530 561,-530 555,-524 555,-518 555,-518 555,-442 555,-442 555,-436 561,-430 567,-430"/>
<text text-anchor="middle" x="745.5" y="-518.8" font-family="Helvetica,sans-Serif" font-weight="bold" font-size="9.00">http</text>
</g>
<g id="clust20" class="cluster">
<title>cluster_src/utils/http/axios</title>
<path fill="#ffffff" stroke="black" stroke-width="2" d="M661,-438C661,-438 916,-438 916,-438 922,-438 928,-444 928,-450 928,-450 928,-492 928,-492 928,-498 922,-504 916,-504 916,-504 661,-504 661,-504 655,-504 649,-498 649,-492 649,-492 649,-450 649,-450 649,-444 655,-438 661,-438"/>
<text text-anchor="middle" x="788.5" y="-492.8" font-family="Helvetica,sans-Serif" font-weight="bold" font-size="9.00">axios</text>
</g>
<!-- src/App.vue -->
<g id="node1" class="node">
<title>src/App.vue</title>
<g id="a_node1"><a xlink:href="src/App.vue" xlink:title="App.vue">
<path fill="#41f083" stroke="black" d="M142,-130C142,-130 100,-130 100,-130 97,-130 94,-127 94,-124 94,-124 94,-118 94,-118 94,-115 97,-112 100,-112 100,-112 142,-112 142,-112 145,-112 148,-115 148,-118 148,-118 148,-124 148,-124 148,-127 145,-130 142,-130"/>
<text text-anchor="start" x="104.5" y="-118.8" font-family="Helvetica,sans-Serif" font-size="9.00">App.vue</text>
</a>
</g>
</g>
<!-- src/api/model/userModel.ts -->
<g id="node2" class="node">
<title>src/api/model/userModel.ts</title>
<g id="a_node2"><a xlink:href="src/api/model/userModel.ts" xlink:title="userModel.ts">
<path fill="#ddfeff" stroke="black" d="M619,-598C619,-598 561,-598 561,-598 558,-598 555,-595 555,-592 555,-592 555,-586 555,-586 555,-583 558,-580 561,-580 561,-580 619,-580 619,-580 622,-580 625,-583 625,-586 625,-586 625,-592 625,-592 625,-595 622,-598 619,-598"/>
<text text-anchor="start" x="563" y="-586.8" font-family="Helvetica,sans-Serif" font-size="9.00">userModel.ts</text>
</a>
</g>
</g>
<!-- src/api/user.ts -->
<g id="node3" class="node">
<title>src/api/user.ts</title>
<g id="a_node3"><a xlink:href="src/api/user.ts" xlink:title="user.ts">
<path fill="#ddfeff" stroke="black" d="M510,-594C510,-594 468,-594 468,-594 465,-594 462,-591 462,-588 462,-588 462,-582 462,-582 462,-579 465,-576 468,-576 468,-576 510,-576 510,-576 513,-576 516,-579 516,-582 516,-582 516,-588 516,-588 516,-591 513,-594 510,-594"/>
<text text-anchor="start" x="474.5" y="-582.8" font-family="Helvetica,sans-Serif" font-size="9.00">user.ts</text>
</a>
</g>
</g>
<!-- src/api/user.ts&#45;&gt;src/api/model/userModel.ts -->
<g id="edge1" class="edge">
<title>src/api/user.ts&#45;&gt;src/api/model/userModel.ts</title>
<path fill="none" stroke="#000000" stroke-width="2" stroke-opacity="0.200000" d="M516.01,-586.05C526.07,-586.46 537.8,-586.93 548.89,-587.38"/>
<polygon fill="#000000" fill-opacity="0.200000" stroke="#000000" stroke-width="2" stroke-opacity="0.200000" points="548.88,-589.48 554.96,-587.62 549.05,-585.28 548.88,-589.48"/>
</g>
<!-- src/utils/http/index.ts -->
<g id="node4" class="node">
<title>src/utils/http/index.ts</title>
<g id="a_node4"><a xlink:href="src/utils/http/index.ts" xlink:title="index.ts">
<path fill="#ddfeff" stroke="black" d="M611,-493C611,-493 569,-493 569,-493 566,-493 563,-490 563,-487 563,-487 563,-481 563,-481 563,-478 566,-475 569,-475 569,-475 611,-475 611,-475 614,-475 617,-478 617,-481 617,-481 617,-487 617,-487 617,-490 614,-493 611,-493"/>
<text text-anchor="start" x="574" y="-481.8" font-family="Helvetica,sans-Serif" font-size="9.00">index.ts</text>
</a>
</g>
</g>
<!-- src/api/user.ts&#45;&gt;src/utils/http/index.ts -->
<g id="edge2" class="edge">
<title>src/api/user.ts&#45;&gt;src/utils/http/index.ts</title>
<path fill="none" stroke="#000000" stroke-width="2" stroke-opacity="0.200000" d="M512.46,-575.97C521.36,-571.69 531.29,-565.98 539,-559 558.23,-541.61 573.51,-515.32 581.9,-498.93"/>
<polygon fill="#000000" fill-opacity="0.200000" stroke="#000000" stroke-width="2" stroke-opacity="0.200000" points="583.87,-499.68 584.67,-493.38 580.11,-497.81 583.87,-499.68"/>
</g>
<!-- src/utils/http/axios/Axios.ts -->
<g id="node30" class="node">
<title>src/utils/http/axios/Axios.ts</title>
<g id="a_node30"><a xlink:href="src/utils/http/axios/Axios.ts" xlink:title="Axios.ts">
<path fill="#ddfeff" stroke="black" d="M705,-464C705,-464 663,-464 663,-464 660,-464 657,-461 657,-458 657,-458 657,-452 657,-452 657,-449 660,-446 663,-446 663,-446 705,-446 705,-446 708,-446 711,-449 711,-452 711,-452 711,-458 711,-458 711,-461 708,-464 705,-464"/>
<text text-anchor="start" x="668" y="-452.8" font-family="Helvetica,sans-Serif" font-size="9.00">Axios.ts</text>
</a>
</g>
</g>
<!-- src/utils/http/index.ts&#45;&gt;src/utils/http/axios/Axios.ts -->
<g id="edge27" class="edge">
<title>src/utils/http/index.ts&#45;&gt;src/utils/http/axios/Axios.ts</title>
<path fill="none" stroke="#000000" stroke-width="2" stroke-opacity="0.200000" d="M617.11,-477.79C624.85,-475.79 633.31,-473.46 641,-471 641.41,-470.87 646.62,-468.89 653.24,-466.37"/>
<polygon fill="#000000" fill-opacity="0.200000" stroke="#000000" stroke-width="2" stroke-opacity="0.200000" points="654.2,-468.25 659.06,-464.15 652.7,-464.33 654.2,-468.25"/>
</g>
<!-- src/utils/http/axios/axiosResponse.ts -->
<g id="node31" class="node">
<title>src/utils/http/axios/axiosResponse.ts</title>
<g id="a_node31"><a xlink:href="src/utils/http/axios/axiosResponse.ts" xlink:title="axiosResponse.ts">
<path fill="#ddfeff" stroke="black" d="M914,-478C914,-478 834,-478 834,-478 831,-478 828,-475 828,-472 828,-472 828,-466 828,-466 828,-463 831,-460 834,-460 834,-460 914,-460 914,-460 917,-460 920,-463 920,-466 920,-466 920,-472 920,-472 920,-475 917,-478 914,-478"/>
<text text-anchor="start" x="836" y="-466.8" font-family="Helvetica,sans-Serif" font-size="9.00">axiosResponse.ts</text>
</a>
</g>
</g>
<!-- src/utils/http/index.ts&#45;&gt;src/utils/http/axios/axiosResponse.ts -->
<g id="edge28" class="edge">
<title>src/utils/http/index.ts&#45;&gt;src/utils/http/axios/axiosResponse.ts</title>
<path fill="none" stroke="#000000" stroke-width="2" stroke-opacity="0.200000" d="M617,-486.12C658.89,-489.06 743.82,-493.05 815,-484 822.5,-483.05 830.41,-481.43 837.9,-479.59"/>
<polygon fill="#000000" fill-opacity="0.200000" stroke="#000000" stroke-width="2" stroke-opacity="0.200000" points="838.78,-481.54 844.07,-478.01 837.74,-477.47 838.78,-481.54"/>
</g>
<!-- src/utils/http/axios/axiosTransform.ts -->
<g id="node32" class="node">
<title>src/utils/http/axios/axiosTransform.ts</title>
<g id="a_node32"><a xlink:href="src/utils/http/axios/axiosTransform.ts" xlink:title="axiosTransform.ts">
<path fill="#ddfeff" stroke="black" d="M809,-478C809,-478 730,-478 730,-478 727,-478 724,-475 724,-472 724,-472 724,-466 724,-466 724,-463 727,-460 730,-460 730,-460 809,-460 809,-460 812,-460 815,-463 815,-466 815,-466 815,-472 815,-472 815,-475 812,-478 809,-478"/>
<text text-anchor="start" x="732" y="-466.8" font-family="Helvetica,sans-Serif" font-size="9.00">axiosTransform.ts</text>
</a>
</g>
</g>
<!-- src/utils/http/index.ts&#45;&gt;src/utils/http/axios/axiosTransform.ts -->
<g id="edge29" class="edge">
<title>src/utils/http/index.ts&#45;&gt;src/utils/http/axios/axiosTransform.ts</title>
<path fill="none" stroke="#000000" stroke-width="2" stroke-opacity="0.200000" d="M617.19,-481.79C643.61,-479.55 685.07,-476.05 717.92,-473.27"/>
<polygon fill="#000000" fill-opacity="0.200000" stroke="#000000" stroke-width="2" stroke-opacity="0.200000" points="718.15,-475.36 723.95,-472.76 717.79,-471.18 718.15,-475.36"/>
</g>
<!-- src/components/HeadingLabel.tsx -->
<g id="node5" class="node">
<title>src/components/HeadingLabel.tsx</title>
<g id="a_node5"><a xlink:href="src/components/HeadingLabel.tsx" xlink:title="HeadingLabel.tsx">
<path fill="#bbfeff" stroke="black" d="M436,-432C436,-432 359,-432 359,-432 356,-432 353,-429 353,-426 353,-426 353,-420 353,-420 353,-417 356,-414 359,-414 359,-414 436,-414 436,-414 439,-414 442,-417 442,-420 442,-420 442,-426 442,-426 442,-429 439,-432 436,-432"/>
<text text-anchor="start" x="361" y="-420.8" font-family="Helvetica,sans-Serif" font-size="9.00">HeadingLabel.tsx</text>
</a>
</g>
</g>
<!-- src/components/SvgIcon.vue -->
<g id="node6" class="node">
<title>src/components/SvgIcon.vue</title>
<g id="a_node6"><a xlink:href="src/components/SvgIcon.vue" xlink:title="SvgIcon.vue">
<path fill="#ccffcc" stroke="black" d="M424,-346C424,-346 371,-346 371,-346 368,-346 365,-343 365,-340 365,-340 365,-334 365,-334 365,-331 368,-328 371,-328 371,-328 424,-328 424,-328 427,-328 430,-331 430,-334 430,-334 430,-340 430,-340 430,-343 427,-346 424,-346"/>
<text text-anchor="start" x="373" y="-334.8" font-family="Helvetica,sans-Serif" font-size="9.00">SvgIcon.vue</text>
</a>
</g>
</g>
<!-- src/components/TodoList/index.vue -->
<g id="node7" class="node">
<title>src/components/TodoList/index.vue</title>
<g id="a_node7"><a xlink:href="src/components/TodoList/index.vue" xlink:title="index.vue">
<path fill="#41f083" stroke="black" d="M419,-380C419,-380 376,-380 376,-380 373,-380 370,-377 370,-374 370,-374 370,-368 370,-368 370,-365 373,-362 376,-362 376,-362 419,-362 419,-362 422,-362 425,-365 425,-368 425,-368 425,-374 425,-374 425,-377 422,-380 419,-380"/>
<text text-anchor="start" x="378" y="-368.8" font-family="Helvetica,sans-Serif" font-size="9.00">index.vue</text>
</a>
</g>
</g>
<!-- src/components/TodoList/useTodos.ts -->
<g id="node8" class="node">
<title>src/components/TodoList/useTodos.ts</title>
<g id="a_node8"><a xlink:href="src/components/TodoList/useTodos.ts" xlink:title="useTodos.ts">
<path fill="#ddfeff" stroke="black" d="M517,-380C517,-380 461,-380 461,-380 458,-380 455,-377 455,-374 455,-374 455,-368 455,-368 455,-365 458,-362 461,-362 461,-362 517,-362 517,-362 520,-362 523,-365 523,-368 523,-368 523,-374 523,-374 523,-377 520,-380 517,-380"/>
<text text-anchor="start" x="463" y="-368.8" font-family="Helvetica,sans-Serif" font-size="9.00">useTodos.ts</text>
</a>
</g>
</g>
<!-- src/components/TodoList/index.vue&#45;&gt;src/components/TodoList/useTodos.ts -->
<g id="edge3" class="edge">
<title>src/components/TodoList/index.vue&#45;&gt;src/components/TodoList/useTodos.ts</title>
<path fill="none" stroke="#000000" stroke-width="2" stroke-opacity="0.200000" d="M425.35,-371C432.59,-371 440.58,-371 448.36,-371"/>
<polygon fill="#000000" fill-opacity="0.200000" stroke="#000000" stroke-width="2" stroke-opacity="0.200000" points="448.83,-373.1 454.83,-371 448.83,-368.9 448.83,-373.1"/>
</g>
<!-- src/utils/storage.ts -->
<g id="node9" class="node">
<title>src/utils/storage.ts</title>
<g id="a_node9"><a xlink:href="src/utils/storage.ts" xlink:title="storage.ts">
<path fill="#ddfeff" stroke="black" d="M613,-362C613,-362 567,-362 567,-362 564,-362 561,-359 561,-356 561,-356 561,-350 561,-350 561,-347 564,-344 567,-344 567,-344 613,-344 613,-344 616,-344 619,-347 619,-350 619,-350 619,-356 619,-356 619,-359 616,-362 613,-362"/>
<text text-anchor="start" x="569" y="-350.8" font-family="Helvetica,sans-Serif" font-size="9.00">storage.ts</text>
</a>
</g>
</g>
<!-- src/components/TodoList/useTodos.ts&#45;&gt;src/utils/storage.ts -->
<g id="edge4" class="edge">
<title>src/components/TodoList/useTodos.ts&#45;&gt;src/utils/storage.ts</title>
<path fill="none" stroke="#000000" stroke-width="2" stroke-opacity="0.200000" d="M523.24,-364.96C533.48,-363.09 544.76,-361.04 555.04,-359.17"/>
<polygon fill="#000000" fill-opacity="0.200000" stroke="#000000" stroke-width="2" stroke-opacity="0.200000" points="555.44,-361.24 560.97,-358.1 554.69,-357.1 555.44,-361.24"/>
</g>
<!-- src/components/button/Button.vue -->
<g id="node10" class="node">
<title>src/components/button/Button.vue</title>
<g id="a_node10"><a xlink:href="src/components/button/Button.vue" xlink:title="Button.vue">
<path fill="#41f083" stroke="black" d="M421,-466C421,-466 374,-466 374,-466 371,-466 368,-463 368,-460 368,-460 368,-454 368,-454 368,-451 371,-448 374,-448 374,-448 421,-448 421,-448 424,-448 427,-451 427,-454 427,-454 427,-460 427,-460 427,-463 424,-466 421,-466"/>
<text text-anchor="start" x="376" y="-454.8" font-family="Helvetica,sans-Serif" font-size="9.00">Button.vue</text>
</a>
</g>
</g>
<!-- src/utils/index.ts -->
<g id="node11" class="node">
<title>src/utils/index.ts</title>
<g id="a_node11"><a xlink:href="src/utils/index.ts" xlink:title="index.ts">
<path fill="#ddfeff" stroke="black" d="M611,-392C611,-392 569,-392 569,-392 566,-392 563,-389 563,-386 563,-386 563,-380 563,-380 563,-377 566,-374 569,-374 569,-374 611,-374 611,-374 614,-374 617,-377 617,-380 617,-380 617,-386 617,-386 617,-389 614,-392 611,-392"/>
<text text-anchor="start" x="574" y="-380.8" font-family="Helvetica,sans-Serif" font-size="9.00">index.ts</text>
</a>
</g>
</g>
<!-- src/components/button/Button.vue&#45;&gt;src/utils/index.ts -->
<g id="edge5" class="edge">
<title>src/components/button/Button.vue&#45;&gt;src/utils/index.ts</title>
<path fill="none" stroke="#000000" stroke-width="2" stroke-opacity="0.200000" d="M427.45,-449.42C433.45,-447.73 439.7,-445.88 445.5,-444 487.7,-430.29 503.68,-435.86 539,-409 543.81,-405.34 542.16,-401.62 547,-398 550.09,-395.69 553.57,-393.7 557.17,-392.01"/>
<polygon fill="#000000" fill-opacity="0.200000" stroke="#000000" stroke-width="2" stroke-opacity="0.200000" points="558.19,-393.86 562.89,-389.59 556.55,-390 558.19,-393.86"/>
</g>
<!-- src/env.d.ts -->
<g id="node12" class="node">
<title>src/env.d.ts</title>
<g id="a_node12"><a xlink:href="src/env.d.ts" xlink:title="env.d.ts">
<path fill="#ccffcc" stroke="black" d="M64,-468C64,-468 22,-468 22,-468 19,-468 16,-465 16,-462 16,-462 16,-456 16,-456 16,-453 19,-450 22,-450 22,-450 64,-450 64,-450 67,-450 70,-453 70,-456 70,-456 70,-462 70,-462 70,-465 67,-468 64,-468"/>
<text text-anchor="start" x="27" y="-456.8" font-family="Helvetica,sans-Serif" font-size="9.00">env.d.ts</text>
</a>
</g>
</g>
<!-- src/layout/basic/Header.vue -->
<g id="node13" class="node">
<title>src/layout/basic/Header.vue</title>
<g id="a_node13"><a xlink:href="src/layout/basic/Header.vue" xlink:title="Header.vue">
<path fill="#41f083" stroke="black" d="M423.5,-50C423.5,-50 371.5,-50 371.5,-50 368.5,-50 365.5,-47 365.5,-44 365.5,-44 365.5,-38 365.5,-38 365.5,-35 368.5,-32 371.5,-32 371.5,-32 423.5,-32 423.5,-32 426.5,-32 429.5,-35 429.5,-38 429.5,-38 429.5,-44 429.5,-44 429.5,-47 426.5,-50 423.5,-50"/>
<text text-anchor="start" x="373.5" y="-38.8" font-family="Helvetica,sans-Serif" font-size="9.00">Header.vue</text>
</a>
</g>
</g>
<!-- src/layout/basic/index.vue -->
<g id="node14" class="node">
<title>src/layout/basic/index.vue</title>
<g id="a_node14"><a xlink:href="src/layout/basic/index.vue" xlink:title="index.vue">
<path fill="#41f083" stroke="black" d="M323,-50C323,-50 280,-50 280,-50 277,-50 274,-47 274,-44 274,-44 274,-38 274,-38 274,-35 277,-32 280,-32 280,-32 323,-32 323,-32 326,-32 329,-35 329,-38 329,-38 329,-44 329,-44 329,-47 326,-50 323,-50"/>
<text text-anchor="start" x="282" y="-38.8" font-family="Helvetica,sans-Serif" font-size="9.00">index.vue</text>
</a>
</g>
</g>
<!-- src/layout/basic/index.vue&#45;&gt;src/layout/basic/Header.vue -->
<g id="edge6" class="edge">
<title>src/layout/basic/index.vue&#45;&gt;src/layout/basic/Header.vue</title>
<path fill="none" stroke="#000000" stroke-width="2" stroke-opacity="0.200000" d="M329.19,-41C338.53,-41 349.21,-41 359.27,-41"/>
<polygon fill="#000000" fill-opacity="0.200000" stroke="#000000" stroke-width="2" stroke-opacity="0.200000" points="359.43,-43.1 365.43,-41 359.43,-38.9 359.43,-43.1"/>
</g>
<!-- src/main.ts -->
<g id="node15" class="node">
<title>src/main.ts</title>
<g id="a_node15"><a xlink:href="src/main.ts" xlink:title="main.ts">
<path fill="#ddfeff" stroke="black" d="M64,-228C64,-228 22,-228 22,-228 19,-228 16,-225 16,-222 16,-222 16,-216 16,-216 16,-213 19,-210 22,-210 22,-210 64,-210 64,-210 67,-210 70,-213 70,-216 70,-216 70,-222 70,-222 70,-225 67,-228 64,-228"/>
<text text-anchor="start" x="27.5" y="-216.8" font-family="Helvetica,sans-Serif" font-size="9.00">main.ts</text>
</a>
</g>
</g>
<!-- src/main.ts&#45;&gt;src/App.vue -->
<g id="edge7" class="edge">
<title>src/main.ts&#45;&gt;src/App.vue</title>
<path fill="none" stroke="#000000" stroke-width="2" stroke-opacity="0.200000" d="M45.18,-209.75C47.87,-192.59 55.98,-155.68 78,-135 80.87,-132.31 84.27,-130.13 87.87,-128.37"/>
<polygon fill="#000000" fill-opacity="0.200000" stroke="#000000" stroke-width="2" stroke-opacity="0.200000" points="88.94,-130.2 93.66,-125.94 87.31,-126.33 88.94,-130.2"/>
</g>
<!-- src/router/index.ts -->
<g id="node16" class="node">
<title>src/router/index.ts</title>
<g id="a_node16"><a xlink:href="src/router/index.ts" xlink:title="index.ts">
<path fill="#ddfeff" stroke="black" d="M142,-194C142,-194 100,-194 100,-194 97,-194 94,-191 94,-188 94,-188 94,-182 94,-182 94,-179 97,-176 100,-176 100,-176 142,-176 142,-176 145,-176 148,-179 148,-182 148,-182 148,-188 148,-188 148,-191 145,-194 142,-194"/>
<text text-anchor="start" x="105" y="-182.8" font-family="Helvetica,sans-Serif" font-size="9.00">index.ts</text>
</a>
</g>
</g>
<!-- src/main.ts&#45;&gt;src/router/index.ts -->
<g id="edge8" class="edge">
<title>src/main.ts&#45;&gt;src/router/index.ts</title>
<path fill="none" stroke="#000000" stroke-width="2" stroke-opacity="0.200000" d="M57.87,-209.95C63.9,-206.25 71.14,-202.12 78,-199 81.23,-197.53 84.66,-196.14 88.11,-194.84"/>
<polygon fill="#000000" fill-opacity="0.200000" stroke="#000000" stroke-width="2" stroke-opacity="0.200000" points="88.97,-196.76 93.91,-192.75 87.55,-192.81 88.97,-196.76"/>
</g>
<!-- src/router/guard/index.ts -->
<g id="node17" class="node">
<title>src/router/guard/index.ts</title>
<g id="a_node17"><a xlink:href="src/router/guard/index.ts" xlink:title="index.ts">
<path fill="#ddfeff" stroke="black" d="M142,-228C142,-228 100,-228 100,-228 97,-228 94,-225 94,-222 94,-222 94,-216 94,-216 94,-213 97,-210 100,-210 100,-210 142,-210 142,-210 145,-210 148,-213 148,-216 148,-216 148,-222 148,-222 148,-225 145,-228 142,-228"/>
<text text-anchor="start" x="105" y="-216.8" font-family="Helvetica,sans-Serif" font-size="9.00">index.ts</text>
</a>
</g>
</g>
<!-- src/main.ts&#45;&gt;src/router/guard/index.ts -->
<g id="edge9" class="edge">
<title>src/main.ts&#45;&gt;src/router/guard/index.ts</title>
<path fill="none" stroke="#000000" stroke-width="2" stroke-opacity="0.200000" d="M70.15,-219C75.77,-219 81.76,-219 87.58,-219"/>
<polygon fill="#000000" fill-opacity="0.200000" stroke="#000000" stroke-width="2" stroke-opacity="0.200000" points="87.8,-221.1 93.8,-219 87.8,-216.9 87.8,-221.1"/>
</g>
<!-- src/store/index.ts -->
<g id="node18" class="node">
<title>src/store/index.ts</title>
<g id="a_node18"><a xlink:href="src/store/index.ts" xlink:title="index.ts">
<path fill="#ddfeff" stroke="black" d="M142,-314C142,-314 100,-314 100,-314 97,-314 94,-311 94,-308 94,-308 94,-302 94,-302 94,-299 97,-296 100,-296 100,-296 142,-296 142,-296 145,-296 148,-299 148,-302 148,-302 148,-308 148,-308 148,-311 145,-314 142,-314"/>
<text text-anchor="start" x="105" y="-302.8" font-family="Helvetica,sans-Serif" font-size="9.00">index.ts</text>
</a>
</g>
</g>
<!-- src/main.ts&#45;&gt;src/store/index.ts -->
<g id="edge10" class="edge">
<title>src/main.ts&#45;&gt;src/store/index.ts</title>
<path fill="none" stroke="#000000" stroke-width="2" stroke-opacity="0.200000" d="M52.13,-228.2C65.5,-243.33 92.2,-273.54 107.83,-291.23"/>
<polygon fill="#000000" fill-opacity="0.200000" stroke="#000000" stroke-width="2" stroke-opacity="0.200000" points="106.38,-292.76 111.93,-295.86 109.53,-289.98 106.38,-292.76"/>
</g>
<!-- src/styles/index.scss -->
<g id="node19" class="node">
<title>src/styles/index.scss</title>
<g id="a_node19"><a xlink:href="src/styles/index.scss" xlink:title="index.scss">
<path fill="#ffffcc" stroke="black" d="M145.5,-464C145.5,-464 96.5,-464 96.5,-464 93.5,-464 90.5,-461 90.5,-458 90.5,-458 90.5,-452 90.5,-452 90.5,-449 93.5,-446 96.5,-446 96.5,-446 145.5,-446 145.5,-446 148.5,-446 151.5,-449 151.5,-452 151.5,-452 151.5,-458 151.5,-458 151.5,-461 148.5,-464 145.5,-464"/>
<text text-anchor="start" x="98.5" y="-452.8" font-family="Helvetica,sans-Serif" font-size="9.00">index.scss</text>
</a>
</g>
</g>
<!-- src/main.ts&#45;&gt;src/styles/index.scss -->
<g id="edge11" class="edge">
<title>src/main.ts&#45;&gt;src/styles/index.scss</title>
<path fill="none" stroke="#000000" stroke-width="2" stroke-opacity="0.200000" d="M43.96,-228.14C44.19,-256.29 47.49,-343.65 78,-407 84.38,-420.25 95.45,-432.68 104.62,-441.56"/>
<polygon fill="#000000" fill-opacity="0.200000" stroke="#000000" stroke-width="2" stroke-opacity="0.200000" points="103.4,-443.3 109.21,-445.87 106.28,-440.23 103.4,-443.3"/>
</g>
<!-- src/router/routers/index.ts -->
<g id="node26" class="node">
<title>src/router/routers/index.ts</title>
<g id="a_node26"><a xlink:href="src/router/routers/index.ts" xlink:title="index.ts">
<path fill="#ddfeff" stroke="black" d="M228,-183C228,-183 186,-183 186,-183 183,-183 180,-180 180,-177 180,-177 180,-171 180,-171 180,-168 183,-165 186,-165 186,-165 228,-165 228,-165 231,-165 234,-168 234,-171 234,-171 234,-177 234,-177 234,-180 231,-183 228,-183"/>
<text text-anchor="start" x="191" y="-171.8" font-family="Helvetica,sans-Serif" font-size="9.00">index.ts</text>
</a>
</g>
</g>
<!-- src/router/index.ts&#45;&gt;src/router/routers/index.ts -->
<g id="edge18" class="edge">
<title>src/router/index.ts&#45;&gt;src/router/routers/index.ts</title>
<path fill="none" stroke="#000000" stroke-width="2" stroke-opacity="0.200000" d="M148.12,-181.58C156.18,-180.52 165.15,-179.35 173.58,-178.25"/>
<polygon fill="#000000" fill-opacity="0.200000" stroke="#000000" stroke-width="2" stroke-opacity="0.200000" points="174.22,-180.28 179.9,-177.42 173.68,-176.11 174.22,-180.28"/>
</g>
<!-- src/utils/auth.ts -->
<g id="node25" class="node">
<title>src/utils/auth.ts</title>
<g id="a_node25"><a xlink:href="src/utils/auth.ts" xlink:title="auth.ts">
<path fill="#ddfeff" stroke="black" d="M611,-422C611,-422 569,-422 569,-422 566,-422 563,-419 563,-416 563,-416 563,-410 563,-410 563,-407 566,-404 569,-404 569,-404 611,-404 611,-404 614,-404 617,-407 617,-410 617,-410 617,-416 617,-416 617,-419 614,-422 611,-422"/>
<text text-anchor="start" x="576" y="-410.8" font-family="Helvetica,sans-Serif" font-size="9.00">auth.ts</text>
</a>
</g>
</g>
<!-- src/router/guard/index.ts&#45;&gt;src/utils/auth.ts -->
<g id="edge17" class="edge">
<title>src/router/guard/index.ts&#45;&gt;src/utils/auth.ts</title>
<path fill="none" stroke="#000000" stroke-width="2" stroke-opacity="0.200000" d="M128.28,-228.22C136.76,-240.82 152.18,-264.23 164,-285 230.51,-401.86 166.04,-555 300.5,-555 300.5,-555 300.5,-555 398.5,-555 429.9,-555 517.2,-562.6 539,-540 556.48,-521.88 531.57,-446.89 547,-427 549.72,-423.49 553.35,-420.86 557.34,-418.87"/>
<polygon fill="#000000" fill-opacity="0.200000" stroke="#000000" stroke-width="2" stroke-opacity="0.200000" points="558.21,-420.79 562.96,-416.56 556.61,-416.91 558.21,-420.79"/>
</g>
<!-- src/pages/About.vue -->
<g id="node20" class="node">
<title>src/pages/About.vue</title>
<g id="a_node20"><a xlink:href="src/pages/About.vue" xlink:title="About.vue">
<path fill="#41f083" stroke="black" d="M323.5,-166C323.5,-166 279.5,-166 279.5,-166 276.5,-166 273.5,-163 273.5,-160 273.5,-160 273.5,-154 273.5,-154 273.5,-151 276.5,-148 279.5,-148 279.5,-148 323.5,-148 323.5,-148 326.5,-148 329.5,-151 329.5,-154 329.5,-154 329.5,-160 329.5,-160 329.5,-163 326.5,-166 323.5,-166"/>
<text text-anchor="start" x="281.5" y="-154.8" font-family="Helvetica,sans-Serif" font-size="9.00">About.vue</text>
</a>
</g>
</g>
<!-- src/pages/About.vue&#45;&gt;src/components/HeadingLabel.tsx -->
<g id="edge13" class="edge">
<title>src/pages/About.vue&#45;&gt;src/components/HeadingLabel.tsx</title>
<path fill="none" stroke="#000000" stroke-width="2" stroke-opacity="0.200000" d="M329.64,-164.25C332.51,-166.03 335.08,-168.24 337,-171 352.15,-192.7 328.58,-388.25 345,-409 345.82,-410.04 346.71,-411 347.65,-411.9"/>
<polygon fill="#000000" fill-opacity="0.200000" stroke="#000000" stroke-width="2" stroke-opacity="0.200000" points="346.78,-413.87 352.82,-415.84 349.33,-410.53 346.78,-413.87"/>
</g>
<!-- src/pages/About.vue&#45;&gt;src/utils/index.ts -->
<g id="edge14" class="edge">
<title>src/pages/About.vue&#45;&gt;src/utils/index.ts</title>
<path fill="none" stroke="#000000" stroke-width="2" stroke-opacity="0.200000" d="M329.67,-164.24C332.53,-166.02 335.09,-168.24 337,-171 347.24,-185.81 332.11,-482.43 345,-495 376.97,-526.19 402.93,-508.51 445.5,-495 493.98,-479.61 510.1,-470.86 539,-429 547.09,-417.29 537.4,-408.51 547,-398 549.81,-394.93 553.29,-392.48 557.03,-390.54"/>
<polygon fill="#000000" fill-opacity="0.200000" stroke="#000000" stroke-width="2" stroke-opacity="0.200000" points="558.04,-392.39 562.66,-388.04 556.33,-388.55 558.04,-392.39"/>
</g>
<!-- src/pages/Xlsx.vue -->
<g id="node21" class="node">
<title>src/pages/Xlsx.vue</title>
<g id="a_node21"><a xlink:href="src/pages/Xlsx.vue" xlink:title="Xlsx.vue">
<path fill="#41f083" stroke="black" d="M418.5,-166C418.5,-166 376.5,-166 376.5,-166 373.5,-166 370.5,-163 370.5,-160 370.5,-160 370.5,-154 370.5,-154 370.5,-151 373.5,-148 376.5,-148 376.5,-148 418.5,-148 418.5,-148 421.5,-148 424.5,-151 424.5,-154 424.5,-154 424.5,-160 424.5,-160 424.5,-163 421.5,-166 418.5,-166"/>
<text text-anchor="start" x="380.5" y="-154.8" font-family="Helvetica,sans-Serif" font-size="9.00">Xlsx.vue</text>
</a>
</g>
</g>
<!-- src/pages/About.vue&#45;&gt;src/pages/Xlsx.vue -->
<g id="edge12" class="edge">
<title>src/pages/About.vue&#45;&gt;src/pages/Xlsx.vue</title>
<path fill="none" stroke="#000000" stroke-width="2" stroke-opacity="0.200000" d="M329.69,-157C340.49,-157 352.99,-157 364.24,-157"/>
<polygon fill="#000000" fill-opacity="0.200000" stroke="#000000" stroke-width="2" stroke-opacity="0.200000" points="364.34,-159.1 370.34,-157 364.34,-154.9 364.34,-159.1"/>
</g>
<!-- src/pages/NotFound/404.vue -->
<g id="node22" class="node">
<title>src/pages/NotFound/404.vue</title>
<g id="a_node22"><a xlink:href="src/pages/NotFound/404.vue" xlink:title="404.vue">
<path fill="#41f083" stroke="black" d="M322.5,-260C322.5,-260 280.5,-260 280.5,-260 277.5,-260 274.5,-257 274.5,-254 274.5,-254 274.5,-248 274.5,-248 274.5,-245 277.5,-242 280.5,-242 280.5,-242 322.5,-242 322.5,-242 325.5,-242 328.5,-245 328.5,-248 328.5,-248 328.5,-254 328.5,-254 328.5,-257 325.5,-260 322.5,-260"/>
<text text-anchor="start" x="285" y="-248.8" font-family="Helvetica,sans-Serif" font-size="9.00">404.vue</text>
</a>
</g>
</g>
<!-- src/pages/home.vue -->
<g id="node23" class="node">
<title>src/pages/home.vue</title>
<g id="a_node23"><a xlink:href="src/pages/home.vue" xlink:title="home.vue">
<path fill="#41f083" stroke="black" d="M324,-136C324,-136 279,-136 279,-136 276,-136 273,-133 273,-130 273,-130 273,-124 273,-124 273,-121 276,-118 279,-118 279,-118 324,-118 324,-118 327,-118 330,-121 330,-124 330,-124 330,-130 330,-130 330,-133 327,-136 324,-136"/>
<text text-anchor="start" x="281" y="-124.8" font-family="Helvetica,sans-Serif" font-size="9.00">home.vue</text>
</a>
</g>
</g>
<!-- src/pages/home.vue&#45;&gt;src/components/TodoList/index.vue -->
<g id="edge15" class="edge">
<title>src/pages/home.vue&#45;&gt;src/components/TodoList/index.vue</title>
<path fill="none" stroke="#000000" stroke-width="2" stroke-opacity="0.200000" d="M330.32,-135.49C332.92,-137.26 335.23,-139.41 337,-142 350.54,-161.84 329.89,-339.33 345,-358 349.71,-363.82 356.62,-367.26 363.86,-369.24"/>
<polygon fill="#000000" fill-opacity="0.200000" stroke="#000000" stroke-width="2" stroke-opacity="0.200000" points="363.66,-371.35 369.97,-370.58 364.56,-367.24 363.66,-371.35"/>
</g>
<!-- src/pages/login/index.vue -->
<g id="node24" class="node">
<title>src/pages/login/index.vue</title>
<g id="a_node24"><a xlink:href="src/pages/login/index.vue" xlink:title="index.vue">
<path fill="#41f083" stroke="black" d="M323,-200C323,-200 280,-200 280,-200 277,-200 274,-197 274,-194 274,-194 274,-188 274,-188 274,-185 277,-182 280,-182 280,-182 323,-182 323,-182 326,-182 329,-185 329,-188 329,-188 329,-194 329,-194 329,-197 326,-200 323,-200"/>
<text text-anchor="start" x="282" y="-188.8" font-family="Helvetica,sans-Serif" font-size="9.00">index.vue</text>
</a>
</g>
</g>
<!-- src/pages/login/index.vue&#45;&gt;src/utils/auth.ts -->
<g id="edge16" class="edge">
<title>src/pages/login/index.vue&#45;&gt;src/utils/auth.ts</title>
<path fill="none" stroke="#000000" stroke-width="2" stroke-opacity="0.200000" d="M313.8,-200.2C321.91,-207.57 332.23,-218.68 337,-231 343.02,-246.55 333.05,-519.37 345,-531 360.44,-546.04 523.18,-545.65 539,-531 556.01,-515.25 532.74,-445.27 547,-427 549.73,-423.5 553.37,-420.87 557.36,-418.89"/>
<polygon fill="#000000" fill-opacity="0.200000" stroke="#000000" stroke-width="2" stroke-opacity="0.200000" points="558.23,-420.8 562.98,-416.58 556.63,-416.92 558.23,-420.8"/>
</g>
<!-- src/router/routers/index.ts&#45;&gt;src/layout/basic/index.vue -->
<g id="edge21" class="edge">
<title>src/router/routers/index.ts&#45;&gt;src/layout/basic/index.vue</title>
<path fill="none" stroke="#000000" stroke-width="2" stroke-opacity="0.200000" d="M214.36,-164.86C230.2,-142.08 271.53,-82.66 290.59,-55.24"/>
<polygon fill="#000000" fill-opacity="0.200000" stroke="#000000" stroke-width="2" stroke-opacity="0.200000" points="292.4,-56.33 294.1,-50.21 288.95,-53.93 292.4,-56.33"/>
</g>
<!-- src/router/routers/index.ts&#45;&gt;src/pages/About.vue -->
<g id="edge22" class="edge">
<title>src/router/routers/index.ts&#45;&gt;src/pages/About.vue</title>
<path fill="none" stroke="#000000" stroke-width="2" stroke-opacity="0.200000" d="M234.26,-169.17C244.53,-167.29 256.44,-165.1 267.3,-163.1"/>
<polygon fill="#000000" fill-opacity="0.200000" stroke="#000000" stroke-width="2" stroke-opacity="0.200000" points="267.69,-165.17 273.21,-162.02 266.93,-161.03 267.69,-165.17"/>
</g>
<!-- src/router/routers/index.ts&#45;&gt;src/pages/NotFound/404.vue -->
<g id="edge20" class="edge">
<title>src/router/routers/index.ts&#45;&gt;src/pages/NotFound/404.vue</title>
<path fill="none" stroke="#000000" stroke-width="2" stroke-opacity="0.200000" d="M214.62,-183.1C223.5,-194.83 240.2,-215.32 258,-229 262.84,-232.72 268.41,-236.12 273.88,-239.07"/>
<polygon fill="#000000" fill-opacity="0.200000" stroke="#000000" stroke-width="2" stroke-opacity="0.200000" points="273,-240.98 279.29,-241.87 274.93,-237.25 273,-240.98"/>
</g>
<!-- src/router/routers/index.ts&#45;&gt;src/pages/home.vue -->
<g id="edge23" class="edge">
<title>src/router/routers/index.ts&#45;&gt;src/pages/home.vue</title>
<path fill="none" stroke="#000000" stroke-width="2" stroke-opacity="0.200000" d="M220.68,-164.72C230.51,-157.82 244.66,-148.51 258,-142 260.9,-140.58 263.97,-139.23 267.08,-137.97"/>
<polygon fill="#000000" fill-opacity="0.200000" stroke="#000000" stroke-width="2" stroke-opacity="0.200000" points="267.86,-139.92 272.69,-135.78 266.33,-136 267.86,-139.92"/>
</g>
<!-- src/router/routers/index.ts&#45;&gt;src/pages/login/index.vue -->
<g id="edge19" class="edge">
<title>src/router/routers/index.ts&#45;&gt;src/pages/login/index.vue</title>
<path fill="none" stroke="#000000" stroke-width="2" stroke-opacity="0.200000" d="M234.26,-178.83C244.71,-180.75 256.86,-182.98 267.87,-185"/>
<polygon fill="#000000" fill-opacity="0.200000" stroke="#000000" stroke-width="2" stroke-opacity="0.200000" points="267.57,-187.08 273.85,-186.1 268.33,-182.95 267.57,-187.08"/>
</g>
<!-- src/router/types.ts -->
<g id="node27" class="node">
<title>src/router/types.ts</title>
<g id="a_node27"><a xlink:href="src/router/types.ts" xlink:title="no&#45;orphans">
<path fill="#ccffcc" stroke="orange" d="M142,-164C142,-164 100,-164 100,-164 97,-164 94,-161 94,-158 94,-158 94,-152 94,-152 94,-149 97,-146 100,-146 100,-146 142,-146 142,-146 145,-146 148,-149 148,-152 148,-152 148,-158 148,-158 148,-161 145,-164 142,-164"/>
<text text-anchor="start" x="105" y="-152.8" font-family="Helvetica,sans-Serif" font-size="9.00" fill="orange">types.ts</text>
</a>
</g>
</g>
<!-- src/store/modules/app.ts -->
<g id="node28" class="node">
<title>src/store/modules/app.ts</title>
<g id="a_node28"><a xlink:href="src/store/modules/app.ts" xlink:title="no&#45;orphans">
<path fill="#ccffcc" stroke="orange" d="M142,-378C142,-378 100,-378 100,-378 97,-378 94,-375 94,-372 94,-372 94,-366 94,-366 94,-363 97,-360 100,-360 100,-360 142,-360 142,-360 145,-360 148,-363 148,-366 148,-366 148,-372 148,-372 148,-375 145,-378 142,-378"/>
<text text-anchor="start" x="108" y="-366.8" font-family="Helvetica,sans-Serif" font-size="9.00" fill="orange">app.ts</text>
</a>
</g>
</g>
<!-- src/store/modules/user.ts -->
<g id="node29" class="node">
<title>src/store/modules/user.ts</title>
<g id="a_node29"><a xlink:href="src/store/modules/user.ts" xlink:title="no&#45;orphans">
<path fill="#ccffcc" stroke="orange" d="M142,-348C142,-348 100,-348 100,-348 97,-348 94,-345 94,-342 94,-342 94,-336 94,-336 94,-333 97,-330 100,-330 100,-330 142,-330 142,-330 145,-330 148,-333 148,-336 148,-336 148,-342 148,-342 148,-345 145,-348 142,-348"/>
<text text-anchor="start" x="106.5" y="-336.8" font-family="Helvetica,sans-Serif" font-size="9.00" fill="orange">user.ts</text>
</a>
</g>
</g>
<!-- src/utils/http/axios/Axios.ts&#45;&gt;src/utils/http/axios/axiosResponse.ts -->
<g id="edge24" class="edge">
<title>src/utils/http/axios/Axios.ts&#45;&gt;src/utils/http/axios/axiosResponse.ts</title>
<path fill="none" stroke="#000000" stroke-width="2" stroke-opacity="0.200000" d="M711.01,-454.24C715.35,-454.14 719.8,-454.05 724,-454 764.44,-453.48 774.88,-448.9 815,-454 822.5,-454.95 830.41,-456.57 837.9,-458.41"/>
<polygon fill="#000000" fill-opacity="0.200000" stroke="#000000" stroke-width="2" stroke-opacity="0.200000" points="837.74,-460.53 844.07,-459.99 838.78,-456.46 837.74,-460.53"/>
</g>
<!-- src/utils/http/axios/Axios.ts&#45;&gt;src/utils/http/axios/axiosTransform.ts -->
<g id="edge25" class="edge">
<title>src/utils/http/axios/Axios.ts&#45;&gt;src/utils/http/axios/axiosTransform.ts</title>
<path fill="none" stroke="#000000" stroke-width="2" stroke-opacity="0.200000" d="M711.42,-459.43C713.55,-459.79 715.75,-460.16 717.98,-460.53"/>
<polygon fill="#000000" fill-opacity="0.200000" stroke="#000000" stroke-width="2" stroke-opacity="0.200000" points="717.67,-462.61 723.94,-461.53 718.37,-458.47 717.67,-462.61"/>
</g>
<!-- src/utils/http/axios/axiosTransform.ts&#45;&gt;src/utils/http/axios/axiosResponse.ts -->
<g id="edge26" class="edge">
<title>src/utils/http/axios/axiosTransform.ts&#45;&gt;src/utils/http/axios/axiosResponse.ts</title>
<path fill="none" stroke="#000000" stroke-width="2" stroke-opacity="0.200000" d="M815.16,-469C817.26,-469 819.38,-469 821.5,-469"/>
<polygon fill="#000000" fill-opacity="0.200000" stroke="#000000" stroke-width="2" stroke-opacity="0.200000" points="821.85,-471.1 827.85,-469 821.85,-466.9 821.85,-471.1"/>
</g>
<!-- src/utils/mouse.ts -->
<g id="node33" class="node">
<title>src/utils/mouse.ts</title>
<g id="a_node33"><a xlink:href="src/utils/mouse.ts" xlink:title="no&#45;orphans">
<path fill="#ccffcc" stroke="orange" d="M612,-332C612,-332 568,-332 568,-332 565,-332 562,-329 562,-326 562,-326 562,-320 562,-320 562,-317 565,-314 568,-314 568,-314 612,-314 612,-314 615,-314 618,-317 618,-320 618,-320 618,-326 618,-326 618,-329 615,-332 612,-332"/>
<text text-anchor="start" x="570" y="-320.8" font-family="Helvetica,sans-Serif" font-size="9.00" fill="orange">mouse.ts</text>
</a>
</g>
</g>
<!-- src/utils/transform.ts -->
<g id="node34" class="node">
<title>src/utils/transform.ts</title>
<g id="a_node34"><a xlink:href="src/utils/transform.ts" xlink:title="no&#45;orphans">
<path fill="#ccffcc" stroke="orange" d="M617,-302C617,-302 563,-302 563,-302 560,-302 557,-299 557,-296 557,-296 557,-290 557,-290 557,-287 560,-284 563,-284 563,-284 617,-284 617,-284 620,-284 623,-287 623,-290 623,-290 623,-296 623,-296 623,-299 620,-302 617,-302"/>
<text text-anchor="start" x="565" y="-290.8" font-family="Helvetica,sans-Serif" font-size="9.00" fill="orange">transform.ts</text>
</a>
</g>
</g>
</g>
</svg>
